<?xml version="1.0" standalone="no"?>
<!DOCTYPE svg PUBLIC "-//W3C//DTD SVG 20010904//EN"
 "http://www.w3.org/TR/2001/REC-SVG-20010904/DTD/svg10.dtd">
<svg version="1.0" xmlns="http://www.w3.org/2000/svg"
 width="2084.000000pt" height="2084.000000pt" viewBox="0 0 2084.000000 2084.000000"
 preserveAspectRatio="xMidYMid meet">
<metadata>
Created by potrace 1.11, written by Peter Selinger 2001-2013
</metadata>
<g transform="translate(0.000000,2084.000000) scale(0.100000,-0.100000)"
fill="#000000" stroke="none">
<path d="M2935 20816 c-141 -38 -253 -103 -355 -206 -96 -98 -153 -202 -205
-381 -20 -68 -52 -171 -70 -229 -35 -110 -224 -721 -255 -825 -10 -33 -34
-109 -53 -170 -19 -60 -52 -164 -72 -230 -20 -66 -50 -163 -67 -215 -16 -52
-31 -102 -33 -110 -2 -8 -40 -130 -85 -270 -44 -140 -82 -262 -85 -270 -4 -19
-207 -664 -282 -899 -30 -96 -56 -179 -58 -185 -1 -6 -5 -18 -8 -26 -3 -8 -31
-96 -62 -195 -31 -99 -61 -196 -68 -215 -6 -19 -11 -37 -12 -40 0 -3 -6 -18
-12 -35 -10 -25 -60 -185 -69 -220 -8 -30 -167 -505 -198 -593 -21 -57 -40
-113 -42 -125 -32 -145 -19 -212 50 -253 30 -18 99 -22 221 -11 17 1 29 -2 28
-8 0 -5 -4 -66 -8 -135 -4 -69 -9 -141 -10 -160 -2 -19 -6 -89 -9 -155 -4 -66
-9 -142 -11 -169 -3 -27 -7 -90 -10 -140 -3 -50 -7 -125 -10 -166 -2 -41 -7
-111 -10 -155 -11 -171 -15 -224 -20 -320 -3 -55 -8 -129 -11 -165 -4 -64 -7
-106 -19 -305 -3 -55 -8 -122 -10 -150 -2 -27 -7 -99 -10 -160 -3 -60 -8 -132
-10 -160 -4 -51 -14 -199 -21 -315 -3 -62 -11 -191 -19 -310 -2 -30 -6 -100
-9 -154 -3 -55 -8 -124 -10 -155 -3 -31 -8 -103 -11 -161 -3 -58 -8 -130 -10
-160 -2 -30 -7 -102 -10 -160 -3 -58 -8 -125 -10 -150 -3 -25 -7 -99 -10 -165
-3 -66 -8 -138 -10 -160 -2 -22 -7 -87 -11 -145 -4 -58 -8 -123 -9 -145 -2
-22 -3 -50 -4 -62 -1 -16 -17 -30 -61 -54 -154 -82 -161 -186 -17 -261 l39
-19 -7 -122 c-4 -67 -8 -142 -10 -167 -1 -25 -6 -90 -9 -145 -24 -380 -28
-418 -43 -441 -29 -45 34 -61 248 -64 4 0 5 -62 3 -137 -4 -202 -13 -569 -19
-798 -3 -110 -8 -283 -10 -385 -8 -366 -16 -668 -20 -820 -4 -145 -16 -627
-19 -768 l-2 -63 -114 -77 -115 -76 -150 -2 c-82 -1 -161 -5 -175 -8 -14 -3
-41 -9 -60 -12 -19 -4 -67 -21 -106 -40 -198 -92 -261 -304 -147 -488 64 -101
203 -198 306 -212 l45 -6 97 -387 c124 -494 124 -491 116 -492 -3 0 -26 -3
-51 -5 -25 -3 -54 -7 -65 -9 -11 -2 -25 -4 -32 -4 -11 -1 -56 -39 -267 -225
-119 -105 -113 -96 -110 -167 14 -310 19 -602 10 -664 -6 -42 -16 -139 -21
-210 -3 -33 -7 -76 -10 -95 -2 -19 -7 -73 -10 -120 -3 -47 -8 -101 -10 -120
-26 -228 -26 -990 0 -1210 2 -19 7 -60 11 -90 3 -30 8 -66 9 -80 23 -201 85
-439 161 -616 47 -110 82 -170 150 -254 60 -74 90 -103 154 -146 43 -29 54
-34 130 -67 19 -9 96 -27 170 -41 133 -25 155 -29 255 -46 71 -12 345 -60 375
-66 14 -2 40 -7 59 -10 18 -3 42 -7 51 -9 10 -2 40 -7 67 -11 26 -5 50 -9 53
-9 10 -2 96 -17 125 -21 17 -3 37 -7 45 -9 8 -2 37 -6 63 -9 27 -3 52 -8 55
-10 4 -2 30 -6 57 -10 28 -3 61 -8 75 -10 25 -5 407 -63 465 -71 17 -2 47 -7
67 -10 21 -3 55 -7 75 -10 21 -3 61 -8 88 -11 28 -3 60 -7 72 -9 138 -23 325
-24 418 -2 69 16 125 35 250 84 77 30 196 70 265 88 117 31 286 88 355 119 17
8 66 29 110 46 89 36 437 183 530 224 33 15 71 32 85 38 14 6 32 14 41 19 10
4 43 19 75 33 55 23 724 325 879 396 39 18 99 46 134 62 150 67 147 65 159
146 9 64 8 245 -1 312 -16 115 -81 189 -168 191 -92 4 -88 6 -84 -61 4 -51 1
-64 -18 -85 -23 -27 -81 -46 -108 -36 -59 22 -187 184 -410 516 -103 154 -110
165 -135 213 -10 17 -21 32 -26 32 -4 0 -8 4 -8 9 0 5 -44 78 -99 163 -54 85
-100 159 -102 164 -2 5 -37 64 -78 129 -41 66 -97 158 -126 205 -54 87 -377
631 -434 730 -18 30 -36 62 -41 70 -37 61 -120 204 -120 207 0 20 -59 87 -102
115 -97 63 -164 84 -293 94 -118 8 -178 79 -327 384 -212 436 -213 438 -383
605 -73 71 -132 137 -130 145 1 8 5 51 9 95 4 44 8 98 10 120 2 22 7 81 10
130 4 50 9 108 11 130 8 81 15 162 20 225 3 36 7 91 10 123 3 31 7 83 10 115
3 31 7 89 10 127 3 39 8 90 10 115 13 142 15 171 21 235 3 39 7 88 9 110 2 22
7 78 10 125 3 47 8 99 10 115 2 17 7 68 10 115 4 47 8 101 10 120 2 19 6 73
10 120 3 47 8 103 10 125 2 22 7 69 10 105 3 36 8 90 10 120 6 60 12 140 20
240 2 36 7 90 10 120 8 92 15 172 20 245 3 39 7 86 10 105 2 19 7 73 10 120 3
47 8 103 10 125 2 22 7 74 10 115 3 41 8 95 10 120 3 25 7 72 10 105 2 33 7
89 10 125 3 36 7 97 11 135 3 39 7 81 9 95 2 14 7 68 10 120 4 52 8 109 10
125 2 17 6 68 10 115 3 47 8 101 10 120 2 19 7 78 11 130 3 52 7 102 9 110 2
8 6 62 10 120 3 58 8 112 10 120 2 8 7 51 10 95 2 44 7 100 10 125 2 25 7 81
10 125 4 44 8 98 10 120 2 22 7 74 10 115 3 41 7 95 10 120 2 25 7 75 10 113
7 90 16 192 21 247 2 25 6 77 9 115 3 39 8 95 10 125 3 30 7 78 10 105 3 28 7
86 10 130 3 44 8 94 10 110 4 28 8 82 21 245 2 36 7 88 9 115 8 82 14 156 20
230 8 98 13 159 21 240 7 80 10 116 19 235 3 47 8 96 10 110 2 14 6 66 10 115
4 50 8 108 10 130 2 22 6 70 9 108 4 37 8 95 11 130 7 80 12 142 21 247 3 47
9 104 13 127 l6 43 50 -26 c69 -35 255 -108 341 -133 87 -26 288 -68 369 -77
33 -3 69 -8 80 -10 107 -20 635 -20 890 1 33 3 92 8 130 11 39 3 81 7 95 9 14
2 48 6 75 10 28 3 61 7 75 10 13 3 42 7 65 10 89 13 266 48 360 72 55 13 107
26 115 28 38 8 218 69 297 101 185 75 352 172 452 265 24 22 50 38 57 35 7 -3
93 -26 191 -52 217 -57 401 -105 508 -134 168 -45 731 -192 745 -195 57 -12
198 -67 302 -119 l123 -61 72 -205 c40 -113 102 -288 137 -390 35 -102 88
-250 116 -330 28 -80 59 -170 69 -200 11 -30 49 -140 86 -245 37 -104 73 -208
80 -230 8 -22 50 -143 95 -270 45 -126 84 -238 87 -247 4 -12 -5 -19 -34 -27
-21 -6 -44 -11 -50 -11 -7 0 -13 -3 -13 -7 0 -4 28 -88 61 -187 67 -196 205
-606 488 -1444 121 -358 176 -535 168 -537 -12 -5 -332 -74 -378 -82 l-26 -5
-1 -596 c0 -329 -1 -609 -1 -624 -1 -24 -4 -26 -44 -26 l-44 0 -55 151 -55
152 0 818 c0 450 -2 820 -5 822 -3 3 -10 -21 -17 -52 -29 -137 -73 -333 -89
-388 -14 -51 -17 -143 -22 -631 l-5 -570 -45 -54 c-25 -29 -59 -70 -76 -89
-95 -112 -101 -163 -33 -308 l31 -65 -39 -36 c-53 -49 -319 -300 -417 -394
l-81 -77 0 -260 0 -261 35 -1 c19 0 448 -1 952 -1 l917 -1 6 -26 c31 -121 163
-278 270 -319 57 -22 93 -30 143 -31 18 -1 22 -7 22 -36 0 -33 -2 -35 -32 -36
-18 0 -51 -2 -73 -4 -22 -1 -101 -5 -175 -9 -74 -4 -164 -9 -200 -11 -36 -3
-119 -7 -185 -10 -112 -5 -184 -9 -375 -20 -41 -2 -129 -6 -195 -10 -66 -3
-149 -8 -185 -10 -36 -2 -117 -7 -180 -10 -203 -11 -414 -23 -525 -30 -63 -5
-148 -9 -365 -20 -41 -2 -115 -6 -165 -10 -49 -3 -126 -8 -170 -10 -44 -3
-120 -7 -170 -10 -49 -4 -124 -8 -165 -10 -41 -2 -111 -7 -155 -10 -44 -3
-123 -8 -175 -10 -52 -3 -113 -7 -135 -10 -22 -2 -89 -7 -150 -10 -60 -4 -129
-8 -152 -10 -23 -2 -83 -7 -135 -10 -165 -10 -335 -23 -393 -30 -22 -2 -74 -7
-115 -10 -41 -4 -86 -8 -100 -10 -14 -2 -50 -7 -80 -10 -30 -4 -63 -11 -72
-16 -10 -5 -18 -7 -18 -4 0 9 -112 -37 -180 -73 -295 -158 -556 -533 -659
-947 -18 -74 -24 -109 -36 -205 -34 -267 57 -503 280 -725 90 -91 118 -115
190 -165 28 -19 52 -37 55 -40 11 -11 233 -136 280 -158 95 -44 344 -135 404
-148 10 -2 33 -8 50 -13 17 -6 42 -13 56 -15 14 -3 68 -14 120 -25 81 -18 186
-34 365 -56 210 -27 1176 -21 1615 9 41 3 116 8 165 11 50 4 106 8 125 11 19
2 62 6 95 10 33 3 68 8 77 10 11 3 40 -12 75 -39 209 -161 490 -278 841 -353
64 -14 133 -27 152 -29 19 -3 51 -7 70 -10 19 -2 51 -6 70 -9 19 -3 62 -8 95
-11 33 -3 78 -7 101 -10 415 -41 2003 -51 3134 -20 438 13 543 16 645 20 61 2
189 7 285 10 96 3 213 8 260 10 47 2 146 7 220 10 74 4 169 8 210 10 41 2 136
6 210 10 74 3 169 7 210 10 76 5 179 11 350 20 295 16 411 23 490 30 30 2 100
7 155 10 55 4 118 8 140 10 22 2 85 6 140 10 55 3 118 8 140 10 22 2 81 7 130
10 50 3 108 8 130 10 38 4 78 7 240 20 39 3 86 8 105 10 19 2 69 7 110 10 41
3 91 8 110 10 19 2 64 7 100 10 36 3 76 7 90 10 14 2 57 7 95 10 39 3 81 8 95
10 14 2 50 6 80 10 102 11 145 16 170 20 14 2 61 9 105 15 44 6 91 12 105 14
14 3 45 7 70 10 25 3 81 13 125 21 44 9 96 18 115 21 118 18 411 107 592 180
404 162 626 365 702 644 47 173 53 462 16 718 -55 379 -219 615 -530 765 -238
114 -444 158 -955 202 -38 3 -86 8 -105 10 -19 2 -71 7 -115 10 -44 4 -99 9
-123 11 -24 2 -69 6 -100 9 -31 2 -93 6 -137 10 -44 3 -98 8 -120 10 -22 2
-83 7 -135 10 -52 3 -108 8 -125 10 -16 2 -73 7 -125 10 -52 4 -106 8 -120 10
-14 2 -70 7 -125 10 -55 4 -120 8 -145 10 -25 2 -81 7 -125 10 -44 3 -102 8
-130 10 -27 2 -93 7 -145 10 -52 3 -108 8 -125 10 -16 2 -75 6 -130 10 -55 3
-122 7 -150 10 -57 5 -170 13 -265 20 -92 6 -205 14 -275 20 -33 2 -96 7 -140
10 -44 3 -107 8 -140 10 -33 3 -98 7 -145 10 -47 3 -107 7 -135 10 -27 2 -95
7 -150 10 -55 4 -120 8 -145 11 -25 2 -89 6 -143 10 -54 3 -115 7 -135 9 -20
2 -82 7 -137 11 -149 10 -179 12 -187 13 -20 3 42 99 102 161 41 42 128 95
182 111 18 5 76 12 128 15 96 5 114 7 160 18 14 3 104 8 200 11 96 3 218 8
270 10 52 2 174 6 270 10 96 3 216 8 265 10 50 2 160 7 245 10 85 3 198 7 250
10 52 2 174 7 270 10 96 3 216 7 265 10 50 3 160 7 245 10 85 3 200 7 255 10
55 2 172 7 260 10 88 3 214 8 280 10 131 5 338 13 480 20 141 6 476 18 518 18
l37 0 0 1173 c0 1111 -1 1174 -17 1175 -10 1 -29 2 -43 4 -14 1 -74 5 -135 9
-60 4 -128 9 -150 11 -22 2 -80 6 -130 10 -49 3 -115 8 -145 10 -30 3 -91 7
-135 10 -73 4 -150 9 -295 20 -30 2 -91 7 -135 10 -44 3 -114 8 -155 11 -41 3
-94 7 -117 8 -23 0 -44 4 -47 7 -3 3 56 34 132 68 75 35 141 67 146 71 5 5 8
129 8 276 0 253 -1 268 -18 270 -25 3 -173 13 -200 14 l-22 0 1 861 c0 655 -3
863 -12 868 -7 4 -69 16 -139 25 -147 20 -187 26 -222 31 -46 7 -304 44 -350
50 -88 12 -115 16 -135 20 -11 2 -22 4 -25 4 -3 1 -6 9 -6 19 -1 19 -11 130
-20 207 -10 87 -19 118 -34 120 -8 2 -28 5 -45 8 -16 3 -59 10 -95 16 -62 10
-81 14 -140 26 -14 2 -41 7 -60 10 -57 9 -150 26 -220 40 -14 2 -38 7 -55 10
-16 2 -41 7 -55 9 -14 3 -42 8 -64 11 -21 3 -41 7 -45 9 -3 2 -28 7 -56 10
-27 4 -81 13 -120 21 -38 8 -97 19 -130 25 -61 10 -89 16 -135 25 -14 2 -38 7
-55 10 -58 10 -91 16 -310 61 -121 25 -231 47 -244 50 -14 3 -27 7 -31 9 -3 2
-33 6 -65 10 -33 4 -71 8 -85 11 -131 22 -843 22 -1195 -1 -33 -2 -103 -6
-155 -10 -52 -3 -113 -8 -135 -10 -22 -2 -76 -7 -120 -10 -44 -4 -96 -8 -115
-10 -35 -4 -112 -10 -245 -21 -76 -6 -108 -9 -200 -18 -33 -4 -87 -9 -120 -12
-33 -3 -76 -7 -95 -9 l-35 -5 -53 158 c-206 607 -509 1267 -810 1766 -114 190
-369 560 -427 622 -5 6 -26 30 -45 54 -59 75 -151 177 -238 266 -20 22 -21 26
-8 46 20 32 63 164 71 218 45 288 -125 549 -466 715 -65 31 -282 111 -327 120
-10 2 -47 10 -83 18 -131 31 -185 42 -299 58 -118 16 -122 17 -144 37 -12 11
-36 32 -55 48 -19 16 -39 34 -45 40 -6 5 -47 38 -90 73 -228 180 -409 271
-573 285 -103 10 -242 70 -525 227 -370 206 -781 460 -1491 922 -196 127 -365
237 -374 242 -9 6 -22 14 -27 18 -6 5 -54 36 -106 70 -232 150 -336 217 -345
224 -5 5 -48 31 -95 60 -237 143 -395 205 -562 219 -72 7 -77 9 -333 157 -737
426 -903 522 -1082 626 -67 39 -126 71 -132 71 -6 0 -11 5 -11 10 0 6 -4 10
-9 10 -5 0 -70 36 -145 80 -76 44 -139 80 -142 80 -3 0 -25 14 -49 30 -24 17
-46 30 -49 30 -3 0 -43 22 -90 50 l-84 49 2 58 c2 60 -12 142 -35 203 -49 134
-199 255 -366 294 -93 21 -232 18 -328 -8z m785 -1046 c14 -11 30 -20 37 -20
6 0 13 -4 15 -8 3 -8 981 -662 1003 -671 5 -2 12 -7 15 -10 3 -4 66 -46 140
-95 74 -49 146 -96 160 -106 127 -87 162 -110 165 -110 2 0 33 -20 69 -45 59
-41 67 -52 90 -113 49 -127 144 -260 235 -326 43 -32 150 -96 281 -169 30 -16
120 -67 200 -112 80 -46 163 -93 185 -105 147 -82 342 -192 355 -200 8 -5 42
-23 75 -41 33 -17 65 -36 72 -41 6 -5 35 -22 65 -37 29 -15 107 -58 173 -96
66 -37 140 -79 165 -93 25 -14 96 -53 157 -88 62 -35 116 -64 119 -64 3 0 18
-8 32 -19 15 -10 52 -32 82 -48 122 -67 252 -140 478 -267 130 -73 273 -152
317 -176 44 -23 85 -46 90 -50 6 -4 37 -22 70 -40 33 -17 63 -35 67 -38 4 -4
-95 -9 -220 -10 -125 -2 -258 -4 -297 -5 -38 -1 -104 6 -145 15 -83 20 -453
106 -485 113 -11 3 -40 9 -65 15 -25 5 -54 11 -65 14 -11 2 -58 14 -105 26
-47 12 -94 23 -105 25 -11 3 -78 19 -148 36 -71 17 -136 32 -145 34 -10 2
-120 29 -246 60 -125 31 -236 58 -245 60 -9 2 -115 28 -236 58 -121 31 -321
80 -445 111 -124 31 -238 60 -255 65 -25 8 -450 116 -495 126 -8 2 -105 27
-215 55 -109 29 -206 53 -215 55 -8 2 -60 15 -115 28 -193 48 -353 51 -380 8
-11 -18 -22 -12 -22 12 0 12 -3 49 -6 82 -4 33 -10 83 -12 110 -3 28 -7 70
-10 95 -2 25 -7 74 -10 110 -3 36 -7 79 -10 95 -2 17 -7 57 -10 90 -4 33 -8
74 -10 90 -2 17 -7 55 -10 85 -3 30 -7 69 -9 85 -2 17 -7 62 -11 100 -4 39 -8
77 -10 85 -1 8 -6 47 -9 85 -4 39 -9 77 -11 85 -3 14 -12 87 -20 168 -2 18 -6
45 -9 60 -3 15 -8 52 -11 82 -3 30 -8 66 -10 80 -2 14 -7 45 -10 70 -3 25 -10
70 -15 100 -5 30 -12 75 -15 100 -6 48 -32 198 -40 240 -3 14 -8 41 -11 60 -3
19 -12 61 -19 93 -7 31 -10 57 -7 57 4 0 18 -9 32 -20z m6495 -3276 c33 -8 70
-17 82 -20 33 -6 279 -92 348 -121 199 -82 283 -123 375 -181 250 -158 318
-347 197 -545 l-29 -47 -33 27 c-338 285 -578 422 -890 512 l-130 37 -1 170
c0 93 1 172 3 177 5 9 7 9 78 -9z m-6240 -1151 c50 -13 115 -31 145 -39 30 -8
116 -31 190 -50 74 -19 236 -62 359 -95 123 -34 233 -62 244 -65 11 -2 34 -8
51 -13 30 -10 216 -60 246 -66 8 -2 42 -11 75 -20 143 -40 202 -55 229 -60 16
-3 32 -8 35 -10 6 -3 227 -63 261 -70 8 -2 40 -10 70 -19 75 -20 331 -89 730
-195 85 -22 211 -56 279 -74 l125 -33 -65 -36 c-103 -57 -145 -77 -232 -109
-84 -32 -292 -97 -337 -105 -14 -3 -47 -11 -75 -19 -44 -13 -253 -56 -338 -70
-18 -3 -57 -10 -87 -15 -84 -14 -111 -19 -165 -26 -27 -3 -58 -8 -67 -9 -9 -2
-48 -7 -85 -10 -37 -4 -76 -9 -85 -10 -9 -2 -57 -7 -105 -10 -48 -4 -99 -8
-113 -10 -40 -7 -317 -19 -430 -19 -188 0 -324 21 -485 76 -79 26 -124 46
-275 123 -50 25 -185 120 -248 173 l-54 45 7 76 c3 42 8 103 11 136 2 33 7 78
9 100 2 22 7 78 10 125 3 47 8 99 10 115 2 17 7 73 11 125 4 52 8 104 10 115
1 11 3 34 3 52 1 35 -11 36 136 -4z m5580 -1776 c64 -54 313 -302 380 -377
244 -275 488 -637 666 -990 69 -136 169 -347 169 -355 0 -1 24 -54 54 -116 29
-63 65 -139 79 -169 13 -30 39 -85 56 -122 17 -38 45 -97 61 -133 17 -36 44
-94 60 -130 17 -36 43 -93 59 -127 61 -134 103 -224 118 -256 9 -19 12 -37 7
-41 -5 -4 -36 -16 -69 -25 -33 -10 -82 -25 -109 -34 l-50 -17 1 -476 0 -476
-70 -15 -69 -15 -18 43 c-11 24 -28 72 -39 106 -11 35 -47 142 -81 238 -58
165 -85 242 -215 620 -45 131 -150 430 -168 480 -3 8 -15 44 -27 80 -12 36
-26 74 -30 85 -5 11 -37 103 -71 205 -35 102 -73 212 -84 245 l-22 60 -43 0
-43 0 -63 180 c-84 242 -178 510 -259 740 -37 105 -86 246 -110 315 -24 69
-71 204 -105 300 -64 182 -74 210 -89 261 l-10 30 37 -32 c20 -17 64 -54 97
-82z m-8028 -4321 c3 -3 8 -176 9 -384 1 -207 5 -780 9 -1272 l6 -895 -141
-93 c-166 -110 -170 -112 -165 -80 2 12 7 151 10 308 3 157 8 355 10 440 2 85
7 256 10 380 3 124 7 306 10 405 7 295 21 869 26 1087 l2 107 66 3 c89 4 140
2 148 -6z m8488 -3189 c2 -7 6 -46 8 -87 l4 -75 -96 -1 c-115 -1 -197 -20
-306 -73 -76 -36 -92 -39 -305 -66 -123 -15 -233 -29 -243 -30 -9 -2 -50 -7
-89 -10 -40 -4 -75 -8 -78 -10 -3 -2 -34 -6 -69 -10 -34 -4 -71 -8 -81 -10
-10 -2 -50 -7 -87 -10 -37 -4 -71 -9 -74 -11 -3 -2 -39 8 -79 22 -40 14 -80
27 -89 29 -185 42 -275 53 -474 56 -105 1 -196 21 -214 45 -19 27 18 60 92 83
95 30 127 33 320 36 178 3 448 13 515 20 19 2 85 6 145 10 61 3 126 8 145 10
19 3 69 7 110 10 123 9 203 15 245 19 22 3 78 7 125 11 47 3 96 8 110 10 14 2
63 7 110 11 47 3 96 8 110 9 14 1 63 6 110 10 47 4 86 8 87 9 9 8 45 2 48 -7z
m6731 -202 c110 -4 231 -8 269 -10 39 -2 129 -6 200 -10 72 -3 173 -7 225 -10
52 -3 145 -7 205 -10 203 -10 456 -24 540 -30 33 -2 98 -7 145 -10 187 -12
353 -26 435 -39 23 -3 45 -51 39 -86 -5 -30 -38 -60 -68 -61 -92 -3 -188 -103
-195 -204 -1 -7 -252 -10 -736 -10 l-735 0 -40 62 c-49 74 -132 153 -196 183
-29 15 -77 26 -129 31 -120 11 -198 55 -229 131 -14 33 -14 38 4 61 13 16 28
23 44 22 13 -2 113 -6 222 -10z"/>
</g>
</svg>
