<?xml version="1.0" standalone="no"?> <!DOCTYPE svg PUBLIC "-//W3C//DTD SVG 1.0//EN" "http://www.w3.org/TR/2001/REC-SVG-20010904/DTD/svg10.dtd" > <svg xmlns="http://www.w3.org/2000/svg" width="100%" height="100%">
<defs >
<font horiz-adv-x="695" ><font-face
    font-family="FetteEgyptienne"
    units-per-em="1000"
    panose-1="0 0 4 0 0 0 0 0 0 0"
    ascent="1062"
    descent="-233"
    alphabetic="0" />
<missing-glyph horiz-adv-x="500" d="M63 0V796H438V0H63ZM125 63H375V734H125V63Z" />
<glyph unicode=" " glyph-name="space" horiz-adv-x="495" />
<glyph unicode="!" glyph-name="exclam" horiz-adv-x="352" d="M56 79Q56 122 98 147Q134 169 180 169Q227 169 262 147Q303 121 303 77Q303 32 262 7Q228 -14 180 -14Q131 -14 96 7Q56 32 56 79ZM225 202H135L32 562Q23 593 23 620Q23 686 93 716Q129 732 178
732Q238 732 281 709Q334 681 334 626Q334 603 324 566L225 202Z" />
<glyph unicode="&quot;" glyph-name="quotedbl" horiz-adv-x="568" d="M127 497Q127 499 125 501Q13 526 13 595Q13 646 53 680T145 714Q205 714 240 670T275 564V553Q275 488 237 431Q195 368 138 368H85V437Q127 437 127 497ZM404 498Q404 500 402 502Q290 527
290 596Q290 647 330 681T422 715Q482 715 517 671T552 565V554Q552 489 514 432Q472 369 415 369H362V438Q404 438 404 498Z" />
<glyph unicode="#" glyph-name="numbersign" horiz-adv-x="803" d="M739 323L717 197H590L554 0H383L422 197H316L279 0H117L153 197H27L49 323H176L192 412H67L89 538H214L247 720H412L376 538H485L519 720H685L651 538H776L754 412H629L612 323H739ZM462 412H356L340
323H446L462 412Z" />
<glyph unicode="$" glyph-name="dollar" horiz-adv-x="765" d="M468 560Q468 566 453 573T427 580Q405 580 405 555V470L414 456L441 447Q475 436 566 408Q583 404 625 390Q678 369 710 327T742 231Q742 89 521 56Q483 54 422 43Q413 39 413 34V2H346V41Q341 42
326 47Q301 49 278 52L168 65Q153 66 113 72Q107 73 86 84Q23 117 23 175Q23 222 71 248Q111 270 162 270Q207 270 244 253Q291 232 291 192Q291 190 289 181T286 168Q286 161 305 156Q319 152 330 152Q346 152 346 159V254L333 268L288 279Q157 311 117 332Q23
381 23 468Q23 559 132 618Q221 666 323 674Q346 676 346 685V721H404Q404 692 403 699Q406 678 429 676Q532 666 536 665Q601 657 639 640Q691 617 714 571Q721 557 721 542Q721 506 678 478Q640 452 602 452Q552 452 514 469Q464 491 464 535Q464 539 466 549T468
560ZM485 189Q485 210 461 228T416 247Q409 247 407 245V162Q425 150 443 150Q485 150 485 189ZM346 477V578Q340 579 332 580Q311 580 295 566T279 530Q279 508 296 492T335 476Q344 476 346 477Z" />
<glyph unicode="%" glyph-name="percent" horiz-adv-x="728" d="M79 0L591 721H659L150 0H79ZM23 555Q23 626 70 669T188 713Q261 713 311 669T362 553Q362 479 316 436T193 393Q118 393 71 437T23 555ZM367 166Q367 236 414 279T532 323Q604 323 655 279T706
164Q706 90 660 47T537 4Q462 4 415 48T367 166ZM232 562Q232 664 191 664Q155 664 155 561Q155 442 196 442Q223 442 230 492Q232 506 232 562ZM576 173Q576 275 535 275Q499 275 499 172Q499 53 541 53Q576 53 576 148V173Z" />
<glyph unicode="&amp;" glyph-name="ampersand" horiz-adv-x="1137" d="M676 317Q836 465 941 465Q1004 465 1050 444Q1110 417 1110 362Q1110 317 1055 291Q1010 270 959 270Q916 270 893 282Q890 284 869 298Q853 309 845 309Q826 309 800 288T774 248Q774 227
787 218Q911 136 993 136Q1043 136 1047 169L1050 193H1123V139Q1123 64 1028 18Q950 -19 867 -19H850Q803 -19 712 8Q634 31 577 58Q569 58 546 44Q531 35 516 25Q426 -25 321 -25H304Q301 -25 289 -24T272 -23Q160 -23 105 5Q27 44 27 144Q27 226 85 289Q104
310 145 335Q194 365 225 386L243 398Q244 400 244 405Q244 412 243 414Q237 434 224 473Q214 503 214 534Q214 541 216 553Q231 641 317 688Q391 728 488 728Q584 728 657 699Q757 659 757 578Q757 509 714 482Q707 478 688 469L624 438Q617 435 598 425Q585 416
585 400Q585 395 587 393L676 317ZM454 569Q454 550 471 523Q489 493 507 493Q521 493 551 511Q596 538 596 570Q596 598 574 616T522 634Q495 634 475 615T454 569ZM310 286Q278 286 278 221Q278 174 307 148Q347 112 414 112Q463 112 463 143Q463 146 461 148L324
281Q317 286 310 286Z" />
<glyph unicode="&apos;" glyph-name="quotesingle" horiz-adv-x="290" d="M127 497Q127 499 125 501Q13 526 13 595Q13 646 53 680T145 714Q205 714 240 670T275 564V553Q275 488 237 431Q195 368 138 368H85V437Q127 437 127 497Z" />
<glyph unicode="(" glyph-name="parenleft" horiz-adv-x="580" d="M436 751H557V638L503 629Q333 601 333 314Q333 170 360 74Q403 -79 508 -79H562V-203H467Q23 -203 23 308Q23 496 134 621Q251 751 436 751Z" />
<glyph unicode=")" glyph-name="parenright" horiz-adv-x="574" d="M28 751H149Q334 751 450 621Q561 495 561 308Q561 64 464 -62Q355 -203 118 -203H23V-79H77Q181 -79 224 75Q251 171 251 314Q251 601 82 629L28 638V751Z" />
<glyph unicode="*" glyph-name="asterisk" horiz-adv-x="425" d="M214 623L266 736L336 698L283 588H405V516H282L341 414L274 374L214 480L155 374L85 417L144 514H23V587H147L79 690L152 733L214 623Z" />
<glyph unicode="+" glyph-name="plus" horiz-adv-x="807" d="M98 484H318V690H488V484H709V315H488V109H318V315H98V484Z" />
<glyph unicode="," glyph-name="comma" horiz-adv-x="295" d="M133 -35Q133 -34 132 -31Q19 -7 19 61Q19 111 61 146Q100 179 151 179Q212 179 248 134Q282 93 282 31Q282 16 279 0Q268 -58 217 -111Q163 -169 107 -169H54V-112Q77 -112 105 -85T133 -35Z" />
<glyph unicode="-" glyph-name="hyphen" horiz-adv-x="363" d="M0 166V336H363V166H0Z" />
<glyph unicode="." glyph-name="period" horiz-adv-x="296" d="M20 81Q20 125 65 153Q103 177 150 177Q201 177 238 153Q282 124 282 79Q282 30 237 2Q200 -21 148 -21Q99 -21 62 5Q20 34 20 81Z" />
<glyph unicode="/" glyph-name="slash" horiz-adv-x="530" d="M26 0L424 721H507L105 0H26Z" />
<glyph unicode="0" glyph-name="zero" horiz-adv-x="839" d="M26 357Q26 524 139 629Q249 732 417 732Q589 732 703 631Q821 526 821 355Q821 177 711 79Q606 -14 426 -14Q249 -14 140 82Q26 183 26 357ZM516 375Q516 477 507 521Q487 617 423 617Q365 617 347
518Q338 470 338 373Q338 267 347 210Q366 92 424 92Q489 92 509 208Q516 250 516 375Z" />
<glyph unicode="1" glyph-name="one" horiz-adv-x="517" d="M220 719H386V173Q386 139 418 117Q430 109 455 104Q462 104 475 103T495 100V0H28V104L53 106Q65 107 81 109Q92 112 105 121Q133 140 133 177L134 487Q134 510 105 530Q96 536 27 550V632Q107 640
111 641Q147 648 186 672Q199 680 220 719Z" />
<glyph unicode="2" glyph-name="two" horiz-adv-x="804" d="M666 283H768V223Q768 144 716 83T585 -3Q547 -15 516 -15Q462 -15 341 27Q325 33 282 47Q233 56 235 56Q215 56 197 47Q176 37 172 23Q171 19 165 0L51 2V79Q51 187 120 271Q182 346 289 392L403 441Q417
447 451 463Q489 492 489 518Q489 522 487 526Q489 534 489 542Q489 586 444 618Q430 628 400 628Q343 628 332 613Q322 613 322 591Q322 590 327 582T333 570L332 568Q339 555 339 535Q339 484 282 458Q239 438 181 438Q23 438 23 575Q23 619 111 666Q243 736
418 736Q540 736 619 694Q656 675 678 662Q781 604 781 521Q781 433 696 379Q630 338 531 323Q463 313 373 295Q367 292 350 286Q302 270 302 261Q302 249 322 249Q323 248 327 248Q342 248 370 251T414 254Q429 254 474 238Q558 208 589 208Q604 208 612 213Q640
223 650 238Q654 244 666 283Z" />
<glyph unicode="3" glyph-name="three" horiz-adv-x="826" d="M503 549Q503 588 479 614T417 641Q356 641 356 622Q356 618 357 602T358 581Q358 479 219 479Q57 479 57 585Q57 679 212 721Q311 748 414 748Q553 748 652 712Q795 660 795 547V533Q795 474 733
442Q720 436 686 420Q678 416 657 405Q632 396 632 391Q632 385 642 375Q810 333 810 191Q810 80 663 27Q559 -10 422 -10Q346 -10 208 11Q139 21 87 57Q22 101 22 162Q22 174 26 189Q40 242 88 270Q130 295 188 295Q250 295 296 267Q350 234 350 176Q350 168 346
151T341 133Q341 121 364 111Q383 102 397 102Q399 102 406 103Q500 115 500 223Q500 259 445 296Q394 330 356 330H242V441H370Q421 441 460 469Q503 500 503 549Z" />
<glyph unicode="4" glyph-name="four" horiz-adv-x="801" d="M430 721H648V360Q649 358 651 344Q659 335 662 335H781V204H671Q654 204 654 173Q654 108 719 108Q730 108 739 111V0H321V105Q351 104 365 115T391 156Q396 169 396 175Q396 179 394 181V182Q394
187 386 194T372 202H24V317L430 721ZM243 333H392V480Q392 496 377 496Q371 496 367 492L232 357Q228 353 228 349Q228 333 243 333Z" />
<glyph unicode="5" glyph-name="five" horiz-adv-x="825" d="M499 227Q499 291 458 327T351 363Q321 363 299 352Q289 345 257 319H86V721H248L275 703Q321 672 419 672Q527 672 556 701L576 721H759L752 694Q740 646 666 600Q544 523 400 523Q361 523 286 539Q259
539 259 523V457L273 454Q391 477 481 477Q644 477 718 416Q766 376 786 341Q808 301 808 243Q808 185 790 153T725 81Q661 27 580 6Q516 -10 417 -10Q367 -10 289 0L203 11Q140 19 87 53Q24 93 24 152Q24 215 76 250Q122 281 188 281Q244 281 299 252Q365 217
365 166Q365 150 352 133T339 116Q339 105 359 97Q376 90 389 90Q437 90 469 136Q499 177 499 227Z" />
<glyph unicode="6" glyph-name="six" horiz-adv-x="826" d="M350 425H366Q371 425 431 437Q461 443 491 443Q525 443 577 436Q816 404 816 232Q816 94 667 29Q559 -18 398 -18Q120 -18 43 220Q23 282 23 347Q23 499 127 618Q220 725 454 725Q642 725 741 656Q784
626 784 579Q784 569 782 557Q775 514 707 492Q658 476 600 476Q547 476 511 498Q468 524 465 573L463 604Q440 624 427 624Q411 624 382 607Q339 582 339 524V436Q339 430 350 425ZM341 207Q341 161 361 128Q384 88 427 88Q472 88 499 125Q524 158 524 205Q524
251 498 287T427 324Q386 324 362 284Q341 250 341 207Z" />
<glyph unicode="7" glyph-name="seven" horiz-adv-x="800" d="M273 568Q241 568 216 542T184 481L180 461H23V721H159V681Q159 672 169 672Q181 672 250 699Q311 723 351 723Q396 723 473 695T575 667Q628 667 645 723L777 721V679Q777 638 753 584T697 501L581
397Q492 317 492 258Q492 231 512 182T533 126Q533 56 474 19Q425 -12 351 -12Q282 -12 231 20Q173 57 173 124Q173 194 192 243Q235 353 314 405Q320 409 429 465Q469 486 474 495Q486 503 486 510Q486 512 484 514T474 521Q468 521 433 523Q357 527 310 557Q293
568 273 568Z" />
<glyph unicode="8" glyph-name="eight" horiz-adv-x="845" d="M735 447Q737 439 773 399Q840 323 840 245Q840 103 687 38Q576 -9 413 -9Q272 -9 169 27Q21 79 21 195Q21 244 47 276Q57 289 112 333Q117 345 117 353Q46 488 46 519Q46 533 49 551Q64 641 200 697Q310
742 418 742Q545 742 650 712Q805 668 805 572Q805 524 779 499Q742 463 735 447ZM495 186Q495 228 409 257Q343 279 285 279Q256 279 237 253T218 191Q218 150 270 123Q313 100 359 100Q406 100 446 120Q495 144 495 186ZM462 644Q428 644 403 631Q371 615 371
584Q371 533 446 521Q481 517 571 504L578 503Q595 503 606 527Q615 546 615 566Q615 605 555 628Q513 644 462 644Z" />
<glyph unicode="9" glyph-name="nine" horiz-adv-x="814" d="M473 295Q476 295 405 283Q329 270 266 270Q169 270 101 317Q23 370 23 463Q23 592 149 661Q251 717 391 717Q417 717 441 715Q578 703 658 647Q746 585 783 459Q799 405 799 351Q799 159 670 61Q555
-27 357 -27Q238 -27 179 -3Q135 15 94 38Q55 70 55 127Q55 127 57 139Q64 183 133 208Q185 227 241 227Q289 227 328 205Q375 179 375 134Q375 132 367 86Q396 67 406 67Q443 67 472 100T502 171V286Q502 295 473 295ZM491 485Q491 532 472 567Q449 609 406 609Q362
609 336 568Q314 533 314 486Q314 443 340 412T408 380Q450 380 472 413Q491 441 491 485Z" />
<glyph unicode=":" glyph-name="colon" horiz-adv-x="298" d="M20 422Q20 466 65 493Q104 517 150 517Q200 517 238 494Q282 467 282 420Q282 371 238 342Q200 317 148 317Q98 317 61 344Q20 374 20 422ZM20 90Q20 134 65 162Q103 186 150 186Q201 186 238 162Q282
133 282 88Q282 39 237 11Q200 -12 148 -12Q99 -12 62 14Q20 43 20 90Z" />
<glyph unicode=";" glyph-name="semicolon" horiz-adv-x="296" d="M18 422Q18 466 63 493Q102 517 148 517Q198 517 236 494Q280 467 280 420Q280 371 236 342Q198 317 146 317Q96 317 59 344Q18 374 18 422ZM133 -35Q133 -34 132 -31Q19 -7 19 61Q19 111 61 146Q100
179 151 179Q212 179 248 134Q282 93 282 31Q282 16 279 0Q268 -58 217 -111Q163 -169 107 -169H54V-112Q77 -112 105 -85T133 -35Z" />
<glyph unicode="&lt;" glyph-name="less" horiz-adv-x="625" d="M583 709V500L298 360L583 220V11L42 273V448L583 709Z" />
<glyph unicode="=" glyph-name="equal" horiz-adv-x="807" d="M98 513H709V375H98V513ZM98 307H709V169H98V307Z" />
<glyph unicode="&gt;" glyph-name="greater" horiz-adv-x="625" d="M42 709L583 448V273L42 11V220L326 360L42 500V709Z" />
<glyph unicode="?" glyph-name="question" horiz-adv-x="713" d="M237 79Q237 119 277 145Q313 168 354 168Q400 168 434 145Q473 119 473 76Q473 32 436 6Q403 -18 358 -18Q310 -18 276 6Q237 34 237 79ZM475 324H525V292Q525 247 466 219Q418 196 367 196Q230
196 203 319Q198 342 198 361Q198 411 240 452Q273 485 332 514Q347 522 379 536T425 558T440 578Q440 602 405 618Q377 631 349 631Q314 631 301 627Q281 621 262 600Q270 581 270 558Q270 472 145 472Q96 472 60 491Q16 514 16 559Q16 630 138 685Q242 732 334
732Q472 732 564 699Q700 650 700 538Q700 456 563 403Q516 385 469 368Q455 363 437 345T419 314Q419 292 445 292Q460 292 475 324Z" />
<glyph unicode="@" glyph-name="at" horiz-adv-x="924" d="M595 616H707L661 377Q652 330 652 321Q652 282 680 282Q709 282 737 323Q784 392 784 480Q784 605 699 680Q618 751 491 751Q344 751 248 653T151 407Q151 256 246 168Q338 82 489 82Q602 82 718 120L743
18Q629 -19 489 -19Q294 -19 175 93Q112 153 77 236T42 408Q42 534 106 641T281 804Q375 851 485 851Q648 851 757 757Q883 649 883 481Q883 380 831 293Q770 190 676 190Q642 190 615 208T577 259Q552 222 510 201T422 179Q343 179 292 239Q244 296 244 377Q244
483 316 561Q378 629 464 629Q516 629 555 601Q575 587 586 569L595 616ZM479 509Q427 509 396 460Q372 422 372 381Q372 342 394 318T452 293Q498 293 529 335Q558 373 558 421Q558 460 537 484T479 509Z" />
<glyph unicode="A" glyph-name="A" horiz-adv-x="1023" d="M403 214Q362 214 362 166Q362 137 395 133L440 127L441 0H24L23 135Q34 134 45 133Q103 133 132 201L355 718H669L893 204Q924 133 1004 133V0H512V129L557 135Q589 139 589 168Q589 214 546 214H403ZM467
454L421 327H513L467 454Z" />
<glyph unicode="B" glyph-name="B" horiz-adv-x="1019" d="M813 384Q815 381 832 371Q833 371 895 342Q898 341 920 331Q958 309 980 269T1002 184Q1002 93 879 43Q783 4 676 4H24V123Q57 123 80 144T103 197V516Q103 548 80 568T22 589V719H701Q791 719 872 680Q971
631 971 550V539Q971 506 951 470T901 421Q894 418 831 395Q815 383 813 384ZM427 560V468Q427 449 449 449H584Q605 449 621 473T638 519Q638 541 620 560T580 580H449Q427 580 427 560ZM427 285V166Q427 146 449 146H584Q607 146 628 171T650 220Q650 247 628
276T580 305H449Q427 305 427 285Z" />
<glyph unicode="C" glyph-name="C" horiz-adv-x="896" d="M746 719H874V414H636L620 492Q602 578 503 578Q453 578 424 536Q398 499 398 447V249Q398 205 431 176T512 146Q556 146 586 169T623 234L636 324H872L867 246Q850 -16 476 -16Q296 -16 166 80Q22 186
22 360Q22 532 172 637Q305 730 485 730Q562 730 647 695Q650 694 669 683Q681 676 693 676Q710 676 724 690Q731 697 746 719Z" />
<glyph unicode="D" glyph-name="D" horiz-adv-x="1041" d="M100 190V509Q100 541 78 564T23 587V719H570Q881 719 979 526Q1022 441 1022 353Q1022 226 931 123Q878 63 785 28Q710 0 642 0H25L24 117Q58 117 79 137T100 190ZM417 560V159Q417 137 433 137H536Q594
137 626 220Q651 283 651 351Q651 457 606 523Q567 580 525 580H439Q417 580 417 560Z" />
<glyph unicode="E" glyph-name="E" horiz-adv-x="998" d="M24 124Q58 124 81 144T104 197V522Q104 553 79 574T23 595V719H979V398H727V488Q727 520 703 550T646 580H439Q418 580 411 553Q410 549 410 536V450Q410 444 421 440Q428 434 437 434H489Q501 434 509
457Q516 477 514 490H641V247H522Q519 263 507 289Q506 292 493 301Q476 314 463 315H428L415 297V174Q415 161 425 147T446 133H646Q678 133 702 162T727 225V303H979V0H25L24 124Z" />
<glyph unicode="F" glyph-name="F" horiz-adv-x="974" d="M416 297V194Q416 179 426 168Q466 123 507 123V0H26V123Q59 123 82 144T105 197V516Q105 549 81 569T23 589V719H957V423H714V488Q714 516 683 548T623 580H440Q411 580 411 539V450Q411 444 422 440Q429
434 438 434H490Q502 434 509 457Q515 475 515 490H641V238H517Q517 255 512 285Q492 310 465 315H429L416 297Z" />
<glyph unicode="G" glyph-name="G" horiz-adv-x="1091" d="M425 281Q425 233 456 194Q496 143 575 143Q618 143 647 159Q682 179 682 219Q682 252 656 263Q649 266 602 274V382H1079V279L1052 276L1045 273Q1000 254 1000 225V4H867Q853 40 827 40Q809 40 795
32Q578 -16 477 -16Q292 -16 166 78Q23 184 23 360Q23 503 143 604Q250 694 400 712Q474 721 535 721Q641 721 730 693Q739 691 760 683Q801 665 807 665Q824 665 859 706H998V436H733L728 484Q724 518 664 548Q611 575 571 575Q509 575 467 536T425 434V281Z"
/>
<glyph unicode="H" glyph-name="H" horiz-adv-x="1078" d="M640 320H447Q440 320 432 315T423 305V184Q423 158 451 141T506 126V0H26V123Q33 122 41 121Q56 121 75 131T101 153Q106 162 106 188L105 522Q105 548 78 567T23 586V719H496V586Q468 586 443 568T418
523V448Q418 433 439 433H640Q661 433 661 449V523Q661 551 633 570Q609 586 580 586V719H1053V586Q1017 586 996 565T975 521V186Q975 161 1007 142Q1035 126 1063 126V0H583V125Q613 125 633 140Q663 163 663 186V306Q663 320 640 320Z" />
<glyph unicode="I" glyph-name="I" horiz-adv-x="522" d="M416 521V173Q416 147 449 129Q476 114 505 114V0H24V111Q64 111 97 144Q104 152 104 170L103 522Q103 552 79 573T22 595V719H495V595Q461 595 439 575T416 521Z" />
<glyph unicode="J" glyph-name="J" horiz-adv-x="777" d="M311 144Q311 122 333 122Q348 122 362 133T376 160V522Q376 551 347 571T286 591V719H759V591Q729 591 712 572T695 523V218Q695 107 587 43Q496 -11 363 -11Q251 -11 168 12Q42 47 26 126Q21 150 21
169Q21 235 62 271T174 308Q341 308 341 212Q341 185 326 164T311 144Z" />
<glyph unicode="K" glyph-name="K" horiz-adv-x="1075" d="M412 539V452L430 438L588 535Q595 540 595 552Q595 570 584 578Q578 583 556 587V719H1010V587Q945 587 918 569L763 467Q753 461 741 452Q738 451 738 440Q738 431 750 418L967 186Q996 155 1004 147Q1021
134 1055 133V0H558V130Q560 129 564 129Q575 129 586 139T598 161Q598 172 514 265Q503 275 486 290L410 241V171Q410 159 442 140Q459 130 484 130V0H25V122Q58 122 91 153Q105 166 105 185L104 522Q104 552 80 573T23 595V719H485V589L453 582Q440 579 426 565T412
539Z" />
<glyph unicode="L" glyph-name="L" horiz-adv-x="897" d="M880 330V0H25V123H33Q63 123 83 143T104 194V522Q104 553 79 574T23 595V719H495V595Q461 595 439 575T417 521V175Q417 133 448 133H547Q582 133 608 169Q628 197 628 225V330H880Z" />
<glyph unicode="M" glyph-name="M" horiz-adv-x="1303" d="M322 450V182Q322 156 352 139Q378 124 406 124V0H25V122Q48 125 74 140Q105 157 105 176L104 522Q104 552 80 573T23 595V719H495L635 384L776 719H1270V595Q1236 595 1214 575T1192 521V184Q1192 158
1224 140Q1252 124 1280 124V0H818V122Q837 122 865 140T894 177L893 450Q893 461 880 461Q874 461 869 447L695 0H527L347 450Q344 458 335 458Q322 458 322 450Z" />
<glyph unicode="N" glyph-name="N" horiz-adv-x="1072" d="M421 126V0H27V123Q51 123 78 140T105 180V522Q105 554 82 574T24 595V719H476L752 310V522Q752 554 730 574T673 595V719H1050V595Q1020 595 999 573T977 521V2H621L347 414V178Q347 156 374 140Q397
126 421 126Z" />
<glyph unicode="O" glyph-name="O" horiz-adv-x="1014" d="M516 -18Q322 -18 184 68Q22 169 22 352Q22 552 171 650Q297 733 508 733Q716 733 845 651Q1001 552 1001 358Q1001 175 844 71Q709 -18 516 -18ZM516 597Q450 597 414 506Q387 438 387 359Q387 123 511
123Q634 123 634 360Q634 439 611 505Q579 597 516 597Z" />
<glyph unicode="P" glyph-name="P" horiz-adv-x="1005" d="M427 292V194Q427 169 450 145Q462 133 527 131V0H26V123Q59 123 82 144T105 197V516Q105 549 81 569T23 589V719H768Q858 719 923 667Q993 610 993 523Q993 432 933 370T782 308H454Q427 308 427 292ZM593
454Q640 454 640 519Q640 543 625 561T589 580H440Q416 580 416 559V474Q416 454 438 454H593Z" />
<glyph unicode="Q" glyph-name="Q" horiz-adv-x="1084" d="M692 1Q664 1 609 -4T525 -10Q310 -10 179 73Q21 173 21 376Q21 552 184 650Q321 733 509 733Q719 733 855 652Q1020 553 1020 358Q1020 221 962 147Q943 123 903 97Q901 87 901 87Q901 75 911 66T933
56Q958 56 969 66Q976 73 987 99H1061V41Q1061 -20 1001 -59Q949 -93 885 -93Q806 -93 766 -64L751 -49Q735 -33 699 0Q698 1 692 1ZM645 292Q645 293 643 299Q645 339 645 342Q645 439 624 504Q592 604 517 604Q446 604 415 511Q394 449 394 359Q394 300 400 294V291Q400
279 415 279Q421 280 432 283Q481 297 517 297Q534 297 570 284T612 271H619Q628 271 636 277T645 292ZM519 195Q447 195 447 157Q447 117 519 117Q591 117 591 157Q591 195 519 195Z" />
<glyph unicode="R" glyph-name="R" horiz-adv-x="1116" d="M1101 132Q1101 46 1005 8Q956 -12 895 -12Q650 -12 650 164Q650 274 573 297Q553 303 542 303H454Q427 303 427 286V194Q427 156 464 137Q470 134 511 131V0H26V123Q59 123 82 144T105 197V516Q105 545
80 569Q59 589 23 589V719H768Q858 719 933 676Q1022 625 1022 542Q1022 458 946 424Q912 408 865 395Q845 389 845 380Q845 375 854 369Q856 369 859 367Q885 357 916 332T959 286Q979 246 979 173Q983 151 1000 151Q1017 151 1022 165Q1024 170 1025 193H1101V132ZM613
445Q665 445 665 519Q665 546 649 566T609 587H449Q423 587 423 563V467Q423 445 447 445H613Z" />
<glyph unicode="S" glyph-name="S" horiz-adv-x="931" d="M410 121Q530 121 542 168Q543 172 543 181Q543 230 467 239Q447 241 394 247Q23 295 23 489Q23 607 152 677Q267 740 419 740Q468 740 615 706Q630 703 641 700Q680 688 685 688Q702 688 713 697Q718
701 731 722H863V526H705L680 548Q602 617 474 617Q405 617 385 586Q378 575 378 567Q378 535 479 516Q542 504 605 493Q678 479 729 463Q820 435 862 385Q907 331 907 239Q907 126 791 57Q690 -3 546 -3Q372 -3 287 23Q275 28 251 38Q236 43 222 43Q212 43 199
35T182 17L176 1H40V222H216L222 204Q231 176 286 150Q335 127 371 123Q389 121 410 121Z" />
<glyph unicode="T" glyph-name="T" horiz-adv-x="1022" d="M359 197V550Q359 588 331 588Q308 588 293 572T277 533V423H26V719H1005V423H756V533Q756 563 729 577Q711 586 698 586Q670 586 670 550L671 197Q671 166 706 143Q737 123 769 123V0H274V123Q302 123
330 146T359 197Z" />
<glyph unicode="U" glyph-name="U" horiz-adv-x="1022" d="M411 524V263Q411 209 449 175T542 141Q598 141 639 168Q686 199 686 252V523Q686 553 656 573Q629 590 598 590Q589 590 587 589V719H1010V586Q979 586 956 568T932 521V252Q932 211 907 162Q820 -7
544 -7Q333 -7 210 73Q99 145 99 247V522Q99 546 74 566T23 586V719H505V591Q474 591 445 574Q411 553 411 524Z" />
<glyph unicode="V" glyph-name="V" horiz-adv-x="1009" d="M990 586Q959 586 931 566T890 516L683 2H352L123 514Q94 579 26 582V717H502V586Q479 586 463 570T446 531Q446 517 455 496L550 272L655 489Q662 503 662 520Q662 550 642 568T590 586V717H990V586Z" />
<glyph unicode="W" glyph-name="W" horiz-adv-x="1391" d="M543 722H930V582Q922 583 913 584Q869 584 869 539Q869 523 881 490L968 254L1055 479Q1064 502 1064 539Q1064 541 1063 545T1062 551Q1062 583 1011 583V722H1367V577Q1364 578 1349 578Q1285 578
1262 507L1100 0H818L705 289L603 0H305L132 500Q105 577 22 577V722H462V582Q459 583 453 583Q406 583 406 528Q406 507 414 487L504 265L590 482Q599 505 599 527Q599 583 543 583V722Z" />
<glyph unicode="X" glyph-name="X" horiz-adv-x="1043" d="M697 385L919 167Q963 124 1024 124V1H519V119Q536 119 548 131T561 160Q561 179 536 197L487 233L445 202Q411 177 411 159Q411 121 447 121V1H37V130Q40 129 58 129Q70 129 97 134Q134 141 171 175L350
341L154 536Q134 556 95 570T26 585V717H539V593Q526 593 515 583T503 561Q503 538 537 512L579 480L628 516Q653 534 653 553Q653 571 641 583T611 595V717H990V587Q915 587 875 550L697 385Z" />
<glyph unicode="Y" glyph-name="Y" horiz-adv-x="1042" d="M27 586V719H572V595Q536 588 536 550Q536 528 570 503L613 471L661 507Q693 531 693 547Q693 563 678 579T648 596V719H1032V589Q978 589 944 553Q937 545 918 526L710 339Q692 323 692 306V178Q692
150 725 131Q749 117 766 117Q772 117 789 121V0H298V116Q301 115 314 115Q341 115 373 139Q391 153 391 175V297Q391 315 378 326L153 523Q93 575 27 586Z" />
<glyph unicode="Z" glyph-name="Z" horiz-adv-x="940" d="M476 139Q482 133 535 133Q686 133 699 250L708 330H929V-1H17V124L438 546Q449 557 449 565Q449 578 441 578Q439 589 376 589Q328 589 293 570Q250 547 247 504L241 423H28V718H918V615L471 168Q463
160 463 154Q463 139 476 139Z" />
<glyph unicode="[" glyph-name="bracketleft" horiz-adv-x="534" d="M493 -195H123V720H493V614H355V-87H493V-195Z" />
<glyph unicode="\" glyph-name="backslash" horiz-adv-x="484" d="M85 547Q85 551 83 565T80 585Q80 665 141 694Q181 713 273 713Q340 713 392 701Q475 682 475 637Q475 600 442 579Q414 561 375 561Q315 561 271 599V566Q271 550 308 541T346 521V381L85 547ZM347
383L346 141Q346 101 445 101Q472 101 472 87V0H23V87Q23 92 28 97Q109 111 109 137L106 375Q106 400 85 550L347 383Z" />
<glyph unicode="]" glyph-name="bracketright" horiz-adv-x="534" d="M42 -195V-87H178V614H42V720H410V-195H42Z" />
<glyph unicode="^" glyph-name="asciicircum" horiz-adv-x="625" d="M219 362H6L178 726H447L619 362H407L313 584L219 362Z" />
<glyph unicode="_" glyph-name="underscore" horiz-adv-x="625" d="M0 -50H625V-172H0V-50Z" />
<glyph unicode="`" glyph-name="grave" horiz-adv-x="828" d="M406 582H341L151 676Q91 706 91 745Q91 772 109 790T155 808Q193 808 245 753L406 582Z" />
<glyph unicode="a" glyph-name="a" horiz-adv-x="828" d="M462 376Q462 403 414 432Q394 444 357 444Q305 444 298 434Q297 433 293 427Q293 382 281 364Q255 325 180 325Q130 325 95 343Q51 366 51 411Q51 464 114 500Q162 528 224 537Q266 543 381 543Q450 543
478 539Q522 534 572 513Q705 458 705 370V138Q705 114 735 114Q747 114 756 125Q762 136 769 146H795Q805 146 805 138Q805 53 754 22Q694 -15 624 -15Q564 -15 514 19Q504 26 480 45Q472 47 471 47Q467 46 451 39Q345 -7 228 -7Q46 -7 24 129Q22 141 22 152Q22
221 95 268Q158 308 230 314Q294 319 446 319Q453 319 457 323T462 376ZM468 206Q468 233 404 233Q364 233 328 220Q280 203 280 171Q280 137 309 117Q334 100 370 100Q396 100 428 111Q468 125 468 146V206Z" />
<glyph unicode="b" glyph-name="b" horiz-adv-x="834" d="M48 721H322Q341 721 341 701V521Q341 512 361 512Q363 513 372 516Q467 551 525 551Q655 551 737 477T820 274Q820 170 739 84Q696 39 637 19Q601 7 517 -1Q485 -4 464 -4Q399 -4 317 22L199 60Q194 60
191 57Q180 54 175 35Q172 21 167 6L157 1H94Q82 1 82 16L83 543Q83 575 51 596T19 623V706Q27 721 48 721ZM331 278Q331 214 353 168Q382 108 439 108Q485 108 511 162Q531 204 531 257Q531 315 511 362Q485 422 433 422Q381 422 354 374Q331 334 331 278Z" />
<glyph unicode="c" glyph-name="c" horiz-adv-x="802" d="M416 421Q322 421 322 230Q322 180 343 144Q368 100 414 100Q488 100 503 153Q506 184 516 220Q519 223 528 223H759Q774 223 774 211Q774 198 754 151Q715 60 602 15Q511 -20 395 -20Q252 -20 149 38Q23
109 23 241Q23 388 140 474Q245 552 397 552Q460 552 558 533Q664 512 711 486Q778 448 778 381Q778 336 729 304Q685 276 638 276Q462 276 462 374Q462 382 463 388T465 395Q465 408 446 415Q431 421 416 421Z" />
<glyph unicode="d" glyph-name="d" horiz-adv-x="856" d="M467 721H769Q772 721 776 719Q778 709 778 151Q778 141 788 130T808 117Q833 112 834 111Q848 105 848 90V0H537Q536 9 532 22Q529 28 514 28Q405 -19 308 -19Q184 -19 104 59T23 261Q23 322 49 370Q97
458 165 498T335 539Q436 539 480 523Q498 516 501 516Q519 516 517 525Q520 530 520 539Q520 581 494 599Q493 600 455 612Q454 613 454 620V713Q459 721 467 721ZM314 257Q314 197 342 156Q374 108 431 108Q477 108 503 162Q523 204 523 257Q523 318 503 363Q477
422 423 422Q368 422 338 364Q314 317 314 257Z" />
<glyph unicode="e" glyph-name="e" horiz-adv-x="771" d="M732 236H330Q323 236 316 230T308 218Q308 217 309 214V207Q309 187 324 158Q350 108 406 108Q468 108 492 153Q499 171 513 205Q514 208 524 208H727Q738 208 741 204V196Q731 171 715 140Q683 79 609
35Q517 -20 386 -20Q242 -20 143 39Q22 111 22 244Q22 331 73 400Q120 464 202 503Q276 538 388 538Q589 538 675 437Q751 348 751 276Q751 255 745 246V245Q741 242 732 236ZM479 358Q461 421 400 421Q335 421 314 358Q316 341 327 341H467Q477 341 479 358Z"
/>
<glyph unicode="f" glyph-name="f" horiz-adv-x="484" d="M346 141Q346 128 359 120T385 107T435 101Q465 101 468 96Q472 95 472 87V0H23V87Q23 94 28 97Q44 99 72 106Q109 122 109 137L106 375Q106 407 55 409Q24 410 24 422V507Q24 518 39 519H62Q71 519 78
527T85 545Q85 551 84 552L83 554Q80 575 80 585Q80 665 139 694Q178 713 273 713Q339 713 391 701Q475 682 475 637Q475 600 442 579Q414 561 375 561Q315 561 271 599V566Q271 544 298 532Q318 523 344 523H455Q457 523 467 521Q469 519 469 512V424Q469 418
464 416T366 413Q347 413 347 383L346 141Z" />
<glyph unicode="g" glyph-name="g" horiz-adv-x="840" d="M403 226Q369 226 330 229T296 232Q273 232 273 203Q273 168 301 168H630Q689 168 745 120T801 13Q801 -80 692 -120Q643 -138 503 -152Q433 -159 370 -159Q254 -159 169 -142Q22 -113 22 -41Q22 -16 42
0Q50 6 79 18Q99 26 99 34Q99 36 97 42Q31 95 31 143Q31 182 83 217Q97 226 165 262Q90 307 81 317Q52 348 52 413Q52 491 167 527Q246 552 346 552Q439 552 536 530Q577 521 588 519Q606 519 657 539T732 560Q782 560 811 516Q815 510 815 497Q815 470 803 448Q788
421 764 421Q734 421 723 441Q720 445 713 477Q709 497 696 497Q686 497 677 490T667 474Q692 404 692 391Q692 321 554 250Q507 226 403 226ZM372 319Q404 319 424 340T445 394Q445 430 421 450T358 470Q329 470 311 448T293 395Q293 361 315 340T372 319ZM262
-13Q262 -40 316 -60Q335 -67 428 -67Q545 -67 545 -16Q545 0 531 12T498 24H324Q262 24 262 -13Z" />
<glyph unicode="h" glyph-name="h" horiz-adv-x="852" d="M429 421Q376 421 353 377Q340 352 340 332V165Q340 133 360 116T414 100V0H23V103Q25 102 34 102Q50 102 68 115T86 143L85 523Q85 545 71 575Q65 588 22 609L21 718H334V489Q341 490 358 497Q368 504
396 520Q460 554 548 554Q637 554 705 499Q776 441 776 353Q776 346 776 319Q775 291 775 270V188Q775 150 787 135Q794 126 832 105V0H461L463 105Q522 122 522 159L521 332Q521 369 494 395T429 421Z" />
<glyph unicode="i" glyph-name="i" horiz-adv-x="428" d="M410 87V0H28V87Q28 95 32 96Q62 106 68 109Q86 120 86 140V358Q86 391 62 408Q53 415 43 416Q22 422 22 426V522Q27 530 34 530H337Q347 526 347 521L348 140Q348 118 379 106T410 87ZM77 666Q77 708
124 730Q160 747 207 747Q350 747 350 663Q350 584 210 584Q158 584 124 600Q77 622 77 666Z" />
<glyph unicode="j" glyph-name="j" horiz-adv-x="405" d="M64 665Q64 709 110 730Q144 746 194 746Q337 746 337 662Q337 584 196 584Q146 584 111 600Q64 621 64 665ZM20 417Q19 422 19 425V518Q24 526 32 526H334Q336 526 340 523T344 517L345 170Q345 130 368
59T392 -42Q392 -96 337 -132Q293 -161 232 -170Q206 -174 199 -174Q5 -174 5 -91Q5 -54 42 -35Q71 -20 112 -20Q164 -20 197 -43Q203 -41 203 -34Q203 -26 200 -20Q91 45 91 97V354Q91 375 75 392T35 414L20 417Z" />
<glyph unicode="k" glyph-name="k" horiz-adv-x="877" d="M843 440Q843 432 825 428Q800 423 775 417L661 357Q645 349 645 338Q645 330 650 322L774 157Q808 111 849 113Q861 109 862 108T863 95V0H454V100Q454 103 476 108T499 130Q499 147 482 171Q442 227
431 227Q418 222 373 202Q353 193 353 160Q353 125 394 105Q398 101 398 97V0H29V91Q29 97 32 100Q89 115 89 143V546Q89 596 37 608Q22 607 22 621V721H350V364Q351 361 352 347Q356 345 360 345Q364 345 445 384Q451 387 451 395Q451 418 428 423T405 436V541H843V440Z"
/>
<glyph unicode="l" glyph-name="l" horiz-adv-x="423" d="M408 87V0H26V87Q26 92 55 105T85 140V545Q85 595 36 605L21 608Q20 609 20 614V709Q25 717 32 717H335Q345 717 345 708L346 140Q346 113 405 96Q408 95 408 87Z" />
<glyph unicode="m" glyph-name="m" horiz-adv-x="1286" d="M349 481Q356 481 363 485Q408 509 445 521Q502 539 545 539Q635 539 720 476L739 462Q763 462 795 485Q837 514 848 519Q912 546 968 546Q1052 546 1114 510Q1182 470 1204 394Q1218 345 1217 267Q1214
62 1213 140Q1213 118 1244 106T1275 87V0H904V87Q904 95 907 96Q964 113 964 140L963 348Q963 382 936 401T873 420Q838 420 810 403Q777 383 777 350L778 140Q778 118 809 106T841 87V0H464V87Q464 93 494 105T524 140V348Q524 383 493 403Q467 420 430 420Q395
420 369 403Q340 383 340 350V139Q340 121 368 109Q395 101 410 96Q414 95 414 87V0H28V87Q28 94 32 96Q47 102 68 109Q86 120 86 140V350Q86 386 62 401Q59 402 45 406T21 414Q20 415 20 422V514L23 521Q23 521 32 523H323Q332 524 332 493Q344 481 349 481Z"
/>
<glyph unicode="n" glyph-name="n" horiz-adv-x="843" d="M414 0H29V87Q29 95 32 96Q87 111 87 140V350Q87 386 63 401Q60 402 46 406T22 414Q21 415 21 422V514L24 521Q24 521 33 523H323Q325 523 330 521L333 514V493L342 482H347Q352 482 404 517Q447 546 528
546Q561 546 609 538Q662 529 685 515Q740 481 761 411Q777 359 775 275Q773 167 771 129Q770 94 770 140Q770 113 829 96Q832 95 832 87V0H465V87Q465 95 468 96Q525 113 525 140L524 348Q524 382 493 402Q466 420 431 420Q396 420 370 403Q341 384 341 350V139Q341
115 411 96Q414 95 414 87V0Z" />
<glyph unicode="o" glyph-name="o" horiz-adv-x="837" d="M423 -10Q266 -10 151 62Q22 143 22 270Q22 430 146 505Q248 567 418 567Q585 567 690 504Q817 428 817 270Q817 133 682 55Q570 -10 423 -10ZM423 445Q366 445 337 388Q314 343 314 280Q314 113 421 113Q524
113 524 277Q524 338 503 384Q475 445 423 445Z" />
<glyph unicode="p" glyph-name="p" horiz-adv-x="848" d="M551 537Q640 537 723 477Q833 397 833 252Q833 109 747 36Q667 -32 521 -32Q486 -32 388 0Q375 11 363 11Q348 11 348 -7Q349 -10 350 -21Q355 -42 372 -52Q376 -54 406 -64Q410 -65 410 -73V-169H28V-80Q28
-72 32 -71Q43 -66 67 -58Q86 -48 86 -28V350Q86 386 62 401Q61 402 23 414Q22 415 22 422V514L25 521Q25 521 34 523H334Q344 523 347 519L350 501Q355 484 368 484Q387 484 415 499Q452 518 460 521Q507 537 551 537ZM444 409Q347 409 347 253Q347 92 445 92Q541
92 541 253Q541 308 520 352Q493 409 444 409Z" />
<glyph unicode="q" glyph-name="q" horiz-adv-x="824" d="M494 0Q486 0 477 -6Q374 -37 292 -37Q164 -37 93 36T22 236Q22 348 106 424Q177 489 295 519Q322 526 355 526Q433 526 560 479Q567 477 594 466Q617 457 625 457Q626 457 632 459Q649 467 652 483Q656
505 660 513Q663 514 741 514Q743 514 750 513L753 506V-24Q753 -58 808 -67Q812 -71 812 -76V-169H455V-76Q455 -71 459 -67L469 -65Q492 -60 499 -47Q504 -37 504 -12Q504 0 494 0ZM406 405Q309 405 309 250Q309 177 322 143Q343 87 402 87Q500 87 500 247Q500
305 481 348Q456 405 406 405Z" />
<glyph unicode="r" glyph-name="r" horiz-adv-x="656" d="M338 310Q338 293 339 292V140Q339 114 405 96Q408 95 408 87V0H26V87Q26 93 55 105T85 140V358Q85 407 41 417Q22 421 21 421T20 429V516L23 523Q29 524 32 524H326Q336 522 336 511V494Q336 479 349
479Q356 479 361 483Q429 535 504 535Q561 535 601 503Q645 468 645 413Q645 353 606 317T504 281Q459 281 432 316Q408 347 403 394Q402 409 396 409Q382 409 360 381T338 310Z" />
<glyph unicode="s" glyph-name="s" horiz-adv-x="666" d="M125 6Q123 4 119 4H41Q39 5 30 6Q26 10 26 15V147Q26 159 41 159H170Q180 159 181 156L185 147Q208 95 309 95Q371 95 371 134Q371 162 342 173Q329 178 305 181Q280 181 232 189Q22 224 22 357Q22 449
124 501Q206 543 308 543Q387 543 467 514Q486 507 491 507Q503 509 513 518T521 534Q529 537 588 537Q603 537 603 525V406Q603 401 598 399T588 395H466Q461 395 451 406Q416 445 353 445Q336 445 320 437Q300 428 300 413Q300 373 392 370Q493 367 560 330Q646
283 646 192Q646 101 559 50Q493 11 389 -1Q363 -4 347 -4Q285 -4 200 27Q162 41 157 41Q136 41 125 6Z" />
<glyph unicode="t" glyph-name="t" horiz-adv-x="472" d="M444 530Q447 526 447 521V431Q447 419 432 419H358Q344 419 335 403Q332 399 332 373L331 128Q331 112 355 112Q382 112 382 142V158Q382 192 414 192Q450 192 450 138Q450 132 444 107Q425 30 360 7Q320
-7 267 -7Q158 -7 110 69Q95 93 95 119V388Q95 417 71 417Q69 417 58 416T43 415Q30 415 23 419Q20 422 20 428V515Q20 522 34 527Q38 526 53 526Q132 526 158 594Q167 628 177 660L189 663H322Q336 663 336 651Q336 537 340 533Q383 534 444 530Z" />
<glyph unicode="u" glyph-name="u" horiz-adv-x="826" d="M806 101V8Q801 0 794 0H509Q499 0 499 30L490 37L478 36Q389 -14 301 -14Q225 -14 158 29Q83 78 83 150Q83 151 84 191Q84 230 84 268V386Q84 409 25 426Q22 431 22 435V513Q22 518 25 522Q32 523 36
524H312Q314 524 323 522Q326 518 326 513V180Q326 151 355 134Q380 119 411 119Q445 119 472 134Q505 152 505 184V384Q505 405 477 413Q476 414 434 426Q431 431 431 435V513Q431 518 434 522Q441 523 445 524H724Q726 524 735 522Q739 518 739 513L740 172Q740
131 771 118Q777 117 788 114T805 109Q806 108 806 101Z" />
<glyph unicode="v" glyph-name="v" horiz-adv-x="788" d="M769 509V423Q769 406 755 406Q754 406 752 407H748Q731 407 712 393T686 362L537 0H250L113 355Q97 397 61 401Q47 401 30 405Q27 406 27 420L26 509Q26 521 41 521H391Q403 521 403 509L404 422Q404
415 400 414Q356 406 356 372Q356 327 381 279Q396 250 433 198Q504 305 504 366Q504 397 463 412H457Q453 412 451 414T448 509Q448 519 462 521H755Q758 520 766 518Q769 515 769 509Z" />
<glyph unicode="w" glyph-name="w" horiz-adv-x="1261" d="M1009 0H728L639 199L552 0H266L112 351Q103 371 81 387Q69 396 28 402Q25 404 25 408V505Q25 517 40 517H408Q420 517 420 505V418Q420 408 412 408Q396 408 384 395T372 366Q372 299 408 244Q419 228
447 184Q487 246 499 272Q523 323 523 370Q523 392 482 407H476Q470 407 468 408Q467 414 467 417V505Q467 517 481 517H854Q866 517 866 505V420Q866 408 863 406L830 400Q814 394 814 373Q814 302 895 186Q969 296 969 366Q969 402 924 408Q921 411 921 418V505Q921
517 935 517H1238Q1250 517 1250 505V416Q1250 404 1247 402T1216 398Q1203 397 1187 382T1164 351L1009 0Z" />
<glyph unicode="x" glyph-name="x" horiz-adv-x="831" d="M418 509V425Q418 421 400 414Q381 401 381 389Q381 371 421 349Q428 339 439 339Q453 339 459 348Q502 367 502 395Q502 403 483 416Q477 416 466 424Q465 425 465 427V509Q465 519 479 521H779Q792 521
792 509V423Q792 412 788 410T755 405T715 397T695 384L560 288Q553 283 553 277Q553 270 560 266L714 148Q733 133 757 117Q769 115 809 106Q812 104 812 92L811 10Q811 4 807 1Q800 0 796 0H411Q405 0 405 10V97Q405 105 425 108T446 125Q446 135 384 176Q330
145 330 126Q330 113 337 110Q340 109 357 107Q358 106 358 103T359 98V10Q359 4 355 1Q348 0 344 0H32Q26 0 26 10V90Q26 102 27 102T79 110Q107 114 128 130L262 232Q269 236 269 243Q269 248 262 254Q187 314 79 395Q71 401 53 402T27 406Q24 407 23 509Q23
521 38 521H404Q418 521 418 509Z" />
<glyph unicode="y" glyph-name="y" horiz-adv-x="795" d="M284 -29Q284 -19 281 -13L106 355Q86 398 54 401Q34 403 23 405Q20 407 20 420V509Q20 513 24 520Q31 521 34 521H401Q403 521 414 520Q415 519 415 509V422Q415 419 412 414Q379 408 372 403Q359 395
359 367Q359 298 427 218Q439 204 443 204Q463 204 491 273Q516 337 516 364V372Q516 390 505 398T474 412H468Q461 412 459 421V509Q459 515 462 519Q469 520 474 521H767Q781 521 781 509V423Q781 408 767 406Q765 407 760 407Q723 407 697 362Q694 355 683 324L656
252Q605 117 581 64Q523 -62 474 -98Q396 -155 281 -155Q247 -155 161 -145Q129 -141 103 -124Q69 -101 69 -70Q69 -46 90 -25T136 0Q145 1 161 1Q211 1 251 -50Q263 -56 270 -56Q284 -56 284 -29Z" />
<glyph unicode="z" glyph-name="z" horiz-adv-x="647" d="M295 397Q295 410 240 410Q195 410 184 403Q147 379 140 330Q136 327 128 327H58Q43 327 43 344V506Q43 518 58 518L622 519Q636 519 636 502V437Q636 430 627 420L368 136L365 124Q365 110 417 110Q507
110 528 196Q529 197 529 202Q529 214 542 214H620Q634 214 634 205V10Q634 4 631 1Q625 0 620 0H36Q28 0 25 1T22 7V82Q22 87 31 97L290 382Q295 389 295 397Z" />
<glyph unicode="{" glyph-name="braceleft" horiz-adv-x="534" d="M293 250Q329 229 338 218Q367 184 367 114V-12Q367 -74 373 -85Q384 -106 414 -110Q430 -112 469 -112Q481 -112 491 -111V-216L363 -218Q273 -218 237 -209Q135 -183 135 -62V103Q135 147 123
168Q108 194 67 200V301Q109 309 123 333Q135 352 135 398V565Q135 644 174 679T291 719Q331 721 372 721Q400 721 491 718V613Q482 614 471 614Q421 614 408 611Q371 603 369 570Q367 543 367 514V387Q367 319 342 288Q329 272 293 250Z" />
<glyph unicode="|" glyph-name="bar" horiz-adv-x="625" d="M190 720H435V-179H190V720Z" />
<glyph unicode="}" glyph-name="braceright" horiz-adv-x="534" d="M240 250Q207 271 195 284Q165 318 165 387V514Q165 576 160 588Q149 608 117 612Q102 614 63 614H42V718Q135 721 170 721Q259 721 295 712Q397 686 397 564V398Q397 354 410 333Q426 307 467
301V200Q425 193 410 168Q397 148 397 103V-62Q397 -140 360 -176T242 -216Q198 -218 160 -218Q134 -218 42 -215V-111Q51 -112 62 -112Q123 -112 140 -104Q162 -94 164 -67Q165 -53 165 -12V114Q165 181 191 213Q204 229 240 250Z" />
<glyph unicode="~" glyph-name="asciitilde" horiz-adv-x="833" d="M231 577L115 662Q187 825 310 825Q343 825 385 813Q391 810 443 794Q517 771 534 771Q564 771 585 797Q589 801 607 828L723 744Q692 677 662 643Q606 579 526 579Q497 579 457 592Q431 601
378 618T303 635Q265 635 231 577Z" />
</font>
</defs>
</svg>
