<svg xmlns="http://www.w3.org/2000/svg" viewBox="0 0 1506.58 501"><defs><style>.cls-1,.cls-2{fill:#fff;}.cls-1{stroke:#fff;stroke-miterlimit:10;}</style></defs><title>logo-full-2</title><g id="Logo"><path class="cls-1" d="M1031.83,353c-21.78-2.24-91-7.09-109-8.35,1.12-2.42,3.85-6.61,9.51-6.92,8-.43,2.66-.43,2.66-.43l100.54-3.91V277.21l-36.77-2.6,7.54-3.46v-13l-5.77-.44V216.22l-21.25-3-.89-8.22s-37.2-6.49-43.84-8.21-23-1.3-31.89-.86-31,2.58-31,2.58-13.19-44-38.25-69.37c4.33-7.21,5.81-23.91-29.13-28-2.89-2.74-12.3-11.19-19-11.19-8,0-62.44-37.2-71.74-42.82s-14.17-4.77-14.17-4.77L649.83,13.72c.36-3.78-.35-8.55-5.39-11.6-9.3-5.62-22.59.44-25.25,12.11,0,0-31.88,103.38-36.31,115.05s6.64,7.79,6.64,7.79l-7.08,111.15S578,250,578,252.13s3.54,3.45,3.54,3.45l-1.33,20.76s-2.66,1.73,3.55,1.73H586l-1.76,71.43-5.77,3.83s-12-1.72-15.5,4.77,3.55,13.4,8.86,13.4l5.31,21.19-4,.44-8.86,7.79s.45,10.37.45,15.13-10.19,70.51,15.94,75.26S628.49,499.53,636,500s10.63-3,18.6-4.76S710,471.42,710,471.42s1.33-3.46.44-9.53-6.2-4.32-6.2-4.32,1.77,4.32-2.66,4.32-39-60.11-39-60.11a12.36,12.36,0,0,0-8.86-3.47c-5.75,0-9.3-16.43-14.61-21.63l-5.32-5.18,17.94-211.77a57.16,57.16,0,0,0,25.91,6.32c35.09.76,52.31-8.51,56.54-13.71,17.26,4.59,31.58,8.37,35.58,9.38a41.23,41.23,0,0,1,9.86,4.31l17.93,51.21-2.54.57,17.58,52.07L802.56,272v29.84h-2.22l-2.65-7.35v-39.8l-3.1,13.85v25.95l-4,4.76s-1.77,1.73-.44,4.76l1.33,3-12.85,12.11v12.55h45.63s2.2,9.08,10.62,9.08v1.72c-25.54,1.32-102.42,5.39-114,7.07-13.88,2-23.62,20.19-23.32,33.45s19.48,29.12,53.14,29.12c26.47,0,37.23-1.25,40.63-1.77,7,5.91,18.12,10.28,35.55,11.3,54.92,3.17,183.06-3.18,207.57-10.11s28-15.27,27.45-30S1056.93,355.64,1031.83,353Zm-440-8.63,1.64-66.34h5.31l.44,61.42ZM830.43,126.32c-7.45-6.84-15.85-11.88-25.21-13.79v-8.65c3.11.49,8.08,1.88,16.38,5.51C836.75,116,832.78,123.45,830.43,126.32ZM698.93,62.68c5.75,3.46,70.85,39.79,70.85,39.79a98.75,98.75,0,0,0-13.77.34c-43.2-9.66-90.37-22.4-91.64-22.4-1.77,0-6.64-1.3-6.64,1.73,0,0-3.83-41.64-7.42-57.18L691.4,52.29S693.17,59.21,698.93,62.68Zm-21.71,99.48c-11.37,0-19.88-5.65-24.82-10L654.18,131l76.16,20.3C720.78,158.06,694.39,162.16,677.22,162.16Zm149.7,81.75v22.92l-3.49.74L805.36,215.5l-1.93.43L788,171.73c10.46,8.21,22,21.27,30.53,39.73l14.18,30.71ZM791.5,361.32l-23.63,3s-5-2.6-14.77-2.6-5.61-4.32,4.43-4,44.88-3.18,44.88-3.18l.29,4.34A16.35,16.35,0,0,0,791.5,361.32ZM1011.75,366a5.31,5.31,0,0,0-4.72,5.18H971.6s-3.26-6.63-8.56-6.63-7.39-4.9-4.73-5.2c0,0,46.94,1.74,54.62,3.17C1012.93,362.55,1014.4,365.73,1011.75,366Z" transform="translate(-561.5 0.5)"/></g><g id="Name"><path class="cls-2" d="M1133.88,129.25q15.24,0,16.76-6a7.7,7.7,0,0,0,.13-1.65q0-6.21-9.66-7.36-2.53-.26-9.27-1-47.11-6.09-47.11-30.73,0-15,16.38-23.88,14.6-8,33.91-8,6.23,0,24.89,4.32c1.27.25,2.37.51,3.3.76a41.38,41.38,0,0,0,5.59,1.52,5.47,5.47,0,0,0,3.56-1.14,16.42,16.42,0,0,0,2.28-3.17h16.77V77.82h-20.07l-3.17-2.8q-9.92-8.76-26.17-8.76-8.76,0-11.3,3.94a4.76,4.76,0,0,0-.89,2.41q0,4.06,12.83,6.48,8,1.51,16,2.92a146.76,146.76,0,0,1,15.75,3.81q11.55,3.56,16.89,9.91,5.71,6.85,5.72,18.54,0,14.36-14.74,23.11-12.83,7.62-31.11,7.62-22.1,0-32.9-3.3l-4.57-1.91a11.71,11.71,0,0,0-3.68-.63,5.82,5.82,0,0,0-3,1.08,4.61,4.61,0,0,0-2.1,2.22l-.76,2h-17.27V116.43h22.35l.76,2.28q1.14,3.56,8.13,6.86a35.52,35.52,0,0,0,10.79,3.43A45.06,45.06,0,0,0,1133.88,129.25Z" transform="translate(-561.5 0.5)"/><path class="cls-2" d="M1202.58,134.33q0-5.58,5.72-9.14a19.78,19.78,0,0,1,10.79-3,20.1,20.1,0,0,1,11.18,3q5.58,3.69,5.59,9.4,0,6.22-5.72,9.78a21,21,0,0,1-11.3,2.92,18.51,18.51,0,0,1-10.92-3.3A11.26,11.26,0,0,1,1202.58,134.33Z" transform="translate(-561.5 0.5)"/><path class="cls-2" d="M1288.81,117.44q-5.2,0-5.2,6.1c0,2.46,1.39,3.85,4.19,4.19l5.71.76.13,16.13h-53l-.13-16.89h2.8q7.37,0,11.05-8.64l28.32-65.66h39.88L1351,118.71q3.95,9,14.1,9v16.89h-62.48V128.24l5.71-.76q4.07-.51,4.07-4.2,0-5.84-5.46-5.84ZM1296.94,87l-5.84,16.13h11.69Z" transform="translate(-561.5 0.5)"/><path class="cls-2" d="M1370.09,134.33q0-5.58,5.72-9.14a19.8,19.8,0,0,1,10.79-3,20.1,20.1,0,0,1,11.18,3q5.58,3.69,5.59,9.4,0,6.22-5.72,9.78a21,21,0,0,1-11.3,2.92,18.51,18.51,0,0,1-10.92-3.3A11.26,11.26,0,0,1,1370.09,134.33Z" transform="translate(-561.5 0.5)"/><path class="cls-2" d="M1545,127.86q0,10.92-12.19,15.74a36.56,36.56,0,0,1-14,2.54q-31.12,0-31.12-22.35,0-14-9.77-16.89a14.81,14.81,0,0,0-3.94-.76H1462.8c-2.28,0-3.43.72-3.43,2.16V120q0,4.83,4.7,7.24.77.39,6,.76v16.64h-61.59V129a10.17,10.17,0,0,0,7.11-2.67,8.75,8.75,0,0,0,2.92-6.73V79.09a9.16,9.16,0,0,0-3.18-6.73,10.06,10.06,0,0,0-7.23-2.54V53.31h94.61a41.41,41.41,0,0,1,21,5.46q11.29,6.48,11.3,17t-9.65,15A64.5,64.5,0,0,1,1515,94.46c-1.7.5-2.54,1.14-2.54,1.9,0,.43.38.89,1.14,1.4a1.25,1.25,0,0,1,.64.25,28.92,28.92,0,0,1,7.3,4.45,20,20,0,0,1,5.4,5.84q2.54,5.08,2.54,14.35c.33,1.86,1.22,2.79,2.66,2.79a2.66,2.66,0,0,0,2.8-1.77,16,16,0,0,0,.38-3.56H1545Zm-62-39.75q6.6,0,6.6-9.4a9.53,9.53,0,0,0-2-6,6.21,6.21,0,0,0-5.08-2.61h-20.32c-2.21,0-3.3,1-3.3,3.05V85.31c0,1.86,1,2.8,3,2.8Z" transform="translate(-561.5 0.5)"/><path class="cls-2" d="M1549.42,134.33q0-5.58,5.71-9.14a19.84,19.84,0,0,1,10.8-3,20.09,20.09,0,0,1,11.17,3q5.6,3.69,5.59,9.4,0,6.22-5.72,9.78a21,21,0,0,1-11.3,2.92,18.51,18.51,0,0,1-10.92-3.3A11.25,11.25,0,0,1,1549.42,134.33Z" transform="translate(-561.5 0.5)"/><path class="cls-2" d="M1696.23,102.71v41.91H1587.64V129h1a8.88,8.88,0,0,0,9-9V78.33a8.29,8.29,0,0,0-3.17-6.61,10.77,10.77,0,0,0-7.11-2.66V53.31h59.94V69.06a10,10,0,0,0-7.11,2.6,8.87,8.87,0,0,0-2.79,6.79v44q0,5.32,3.93,5.33h12.58q4.44,0,7.74-4.57a12.13,12.13,0,0,0,2.54-7.11V102.71Z" transform="translate(-561.5 0.5)"/><path class="cls-2" d="M1176.55,205.71h16.25v38.73h-30.22l-2-9.84q-2.29-10.86-14.86-10.86a11.61,11.61,0,0,0-10,5.32,19.11,19.11,0,0,0-3.3,11.28v25.09a11.87,11.87,0,0,0,4.26,9.31,16.12,16.12,0,0,0,19.68.75,12.1,12.1,0,0,0,4.64-8.19l1.65-11.43h30l-.63,9.91q-2.18,33.27-49.66,33.27-22.86,0-39.37-12.17-18.29-13.44-18.29-35.52,0-21.81,19.05-35.13,16.89-11.79,39.75-11.79A54.83,54.83,0,0,1,1164,208.8a28.11,28.11,0,0,1,2.8,1.5,6.08,6.08,0,0,0,3,.87,5.44,5.44,0,0,0,3.93-1.78A29.66,29.66,0,0,0,1176.55,205.71Z" transform="translate(-561.5 0.5)"/><path class="cls-2" d="M1246.78,269.84c-3.47,0-5.21,2-5.21,6.1q0,3.68,4.19,4.19l5.72.76.12,16.13h-52.95l-.13-16.89h2.79q7.37,0,11-8.64l28.32-65.66h39.88L1309,271.11q3.93,9,14.1,9V297h-62.49V280.64l5.72-.76c2.7-.34,4.06-1.74,4.06-4.2q0-5.83-5.46-5.84Zm8.13-30.48-5.85,16.13h11.69Z" transform="translate(-561.5 0.5)"/><path class="cls-2" d="M1465.34,280.26q0,10.92-12.19,15.74a36.53,36.53,0,0,1-14,2.54q-31.11,0-31.11-22.35,0-14-9.78-16.89a14.81,14.81,0,0,0-3.94-.76h-11.17c-2.29,0-3.43.72-3.43,2.16v11.68c0,3.22,1.56,5.63,4.7,7.24q.75.39,6,.76V297h-61.6V281.4a10.17,10.17,0,0,0,7.11-2.67,8.7,8.7,0,0,0,2.92-6.73V231.49a9.19,9.19,0,0,0-3.17-6.73,10,10,0,0,0-7.24-2.54V205.71h94.61a41.41,41.41,0,0,1,21,5.46q11.29,6.48,11.3,17t-9.65,15a64.5,64.5,0,0,1-10.29,3.69c-1.69.5-2.54,1.14-2.54,1.9,0,.43.38.89,1.15,1.4a1.22,1.22,0,0,1,.63.25,28.75,28.75,0,0,1,7.3,4.45,19.86,19.86,0,0,1,5.4,5.84q2.54,5.08,2.54,14.35.51,2.79,2.67,2.79a2.64,2.64,0,0,0,2.79-1.77,15.41,15.41,0,0,0,.38-3.56h9.65Zm-62-39.75q6.6,0,6.6-9.4a9.53,9.53,0,0,0-2-6,6.21,6.21,0,0,0-5.08-2.61h-20.32q-3.3,0-3.3,3.05v12.19c0,1.86,1,2.8,3,2.8Z" transform="translate(-561.5 0.5)"/><path class="cls-2" d="M1607.08,280.26q0,10.92-12.2,15.74a36.53,36.53,0,0,1-14,2.54q-31.11,0-31.11-22.35,0-14-9.78-16.89a14.74,14.74,0,0,0-3.94-.76h-11.17c-2.29,0-3.43.72-3.43,2.16v11.68c0,3.22,1.56,5.63,4.7,7.24q.75.39,6,.76V297h-61.6V281.4a10.17,10.17,0,0,0,7.11-2.67,8.7,8.7,0,0,0,2.92-6.73V231.49a9.19,9.19,0,0,0-3.17-6.73,10,10,0,0,0-7.24-2.54V205.71h94.62a41.38,41.38,0,0,1,21,5.46q11.29,6.48,11.3,17t-9.65,15a64.5,64.5,0,0,1-10.29,3.69c-1.69.5-2.54,1.14-2.54,1.9,0,.43.39.89,1.15,1.4a1.19,1.19,0,0,1,.63.25,28.75,28.75,0,0,1,7.3,4.45,19.86,19.86,0,0,1,5.4,5.84q2.54,5.08,2.54,14.35.51,2.79,2.67,2.79a2.64,2.64,0,0,0,2.79-1.77,15.41,15.41,0,0,0,.38-3.56h9.66Zm-62-39.75q6.6,0,6.6-9.4a9.47,9.47,0,0,0-2-6,6.2,6.2,0,0,0-5.08-2.61h-20.32q-3.3,0-3.3,3.05v12.19c0,1.86,1,2.8,3,2.8Z" transform="translate(-561.5 0.5)"/><path class="cls-2" d="M1661.81,230.85v44.2q0,3.3,4.19,5.59a14.48,14.48,0,0,0,7.12,1.9V297H1612v-14.1a12.85,12.85,0,0,0,9.27-4.19,5,5,0,0,0,.89-3.3l-.13-44.7a8.46,8.46,0,0,0-3-6.54,10.48,10.48,0,0,0-7.24-2.73V205.71h60.08v15.75a10.24,10.24,0,0,0-7.18,2.6A8.75,8.75,0,0,0,1661.81,230.85Z" transform="translate(-561.5 0.5)"/><path class="cls-2" d="M1678.32,281.27a10.46,10.46,0,0,0,7.24-2.6,8.53,8.53,0,0,0,2.92-6.67V230.73a8.32,8.32,0,0,0-3.17-6.61,10.78,10.78,0,0,0-7.12-2.66V205.71h121.42v40.76h-32V235a12.37,12.37,0,0,0-3.11-7.87q-3.12-3.81-7.18-3.81H1731q-2.67,0-3.56,3.43a10.76,10.76,0,0,0-.13,2.16v10.92c0,.51.47.93,1.4,1.27a3,3,0,0,0,2,.76h6.61c1,0,1.86-1,2.54-2.92a9,9,0,0,0,.63-4.19h16.13v30.86h-15.11a24.52,24.52,0,0,0-1.91-5.33c-.08-.26-.68-.76-1.78-1.53a7.55,7.55,0,0,0-3.81-1.77h-4.44L1728,259.3v15.62a5.91,5.91,0,0,0,1.27,3.43,3.43,3.43,0,0,0,2.66,1.78h25.4q4.07,0,7.18-3.75a12.24,12.24,0,0,0,3.11-7.93v-9.91h32V297H1678.45ZM1739,197.2h-8.26l-24.13-11.94q-7.62-3.81-7.62-8.76a7.65,7.65,0,0,1,2.35-5.72,8,8,0,0,1,5.78-2.28q4.83,0,11.43,7Z" transform="translate(-561.5 0.5)"/><path class="cls-2" d="M1941.84,280.26q0,10.92-12.19,15.74a36.56,36.56,0,0,1-14,2.54q-31.11,0-31.11-22.35,0-14-9.78-16.89a14.81,14.81,0,0,0-3.94-.76h-11.18q-3.42,0-3.42,2.16v11.68q0,4.83,4.69,7.24.76.39,6,.76V297h-61.59V281.4a10.17,10.17,0,0,0,7.11-2.67,8.7,8.7,0,0,0,2.92-6.73V231.49a9.19,9.19,0,0,0-3.17-6.73,10,10,0,0,0-7.24-2.54V205.71h94.61a41.41,41.41,0,0,1,21,5.46q11.29,6.48,11.3,17t-9.65,15a64.5,64.5,0,0,1-10.29,3.69c-1.69.5-2.54,1.14-2.54,1.9,0,.43.38.89,1.14,1.4a1.22,1.22,0,0,1,.64.25,28.75,28.75,0,0,1,7.3,4.45,19.86,19.86,0,0,1,5.4,5.84q2.54,5.08,2.54,14.35.51,2.79,2.67,2.79a2.64,2.64,0,0,0,2.79-1.77,15.41,15.41,0,0,0,.38-3.56h9.65Zm-62-39.75q6.6,0,6.6-9.4a9.53,9.53,0,0,0-2-6,6.21,6.21,0,0,0-5.08-2.61H1859q-3.3,0-3.3,3.05v12.19c0,1.86,1,2.8,3,2.8Z" transform="translate(-561.5 0.5)"/><path class="cls-2" d="M1946.8,281.27a10.48,10.48,0,0,0,7.24-2.6A8.56,8.56,0,0,0,1957,272V230.73a8.3,8.3,0,0,0-3.18-6.61,10.77,10.77,0,0,0-7.11-2.66V205.71h121.41v40.76h-32V235a12.37,12.37,0,0,0-3.11-7.87q-3.12-3.81-7.18-3.81H1999.5q-2.67,0-3.55,3.43a10.76,10.76,0,0,0-.13,2.16v10.92c0,.51.46.93,1.39,1.27a3.06,3.06,0,0,0,2,.76h6.6c1,0,1.86-1,2.54-2.92a9.17,9.17,0,0,0,.64-4.19h16.13v30.86H2010a24.39,24.39,0,0,0-1.9-5.33,6,6,0,0,0-1.78-1.53,7.55,7.55,0,0,0-3.81-1.77h-4.45l-1.65,2.28v15.62a6,6,0,0,0,1.27,3.43,3.46,3.46,0,0,0,2.67,1.78h25.4q4.07,0,7.18-3.75a12.24,12.24,0,0,0,3.11-7.93v-9.91h32V297H1946.92Z" transform="translate(-561.5 0.5)"/><path class="cls-2" d="M1133,422.24c-3.48,0-5.21,2-5.21,6.1,0,2.46,1.4,3.85,4.19,4.19l5.72.76.12,16.13h-53l-.12-16.89h2.79q7.37,0,11-8.64l28.32-65.65h39.88l28.45,65.27q3.93,9,14.09,9v16.89h-62.48V433l5.71-.76q4.07-.51,4.07-4.2,0-5.83-5.46-5.84Zm8.12-30.48-5.84,16.13H1147Z" transform="translate(-561.5 0.5)"/><path class="cls-2" d="M1323.49,407.51v41.91H1214.9V433.8h1a8.88,8.88,0,0,0,9-9V383.13a8.32,8.32,0,0,0-3.17-6.61,10.82,10.82,0,0,0-7.11-2.66V358.11h59.94v15.75a10,10,0,0,0-7.11,2.6,8.87,8.87,0,0,0-2.8,6.79V427.2c0,3.55,1.32,5.33,3.94,5.33h12.57q4.45,0,7.75-4.57a12.2,12.2,0,0,0,2.54-7.11V407.51Z" transform="translate(-561.5 0.5)"/><path class="cls-2" d="M1437.4,407.51v41.91H1328.82V433.8h1a8.88,8.88,0,0,0,9-9V383.13a8.32,8.32,0,0,0-3.17-6.61,10.83,10.83,0,0,0-7.12-2.66V358.11h60v15.75a10,10,0,0,0-7.11,2.6,8.84,8.84,0,0,0-2.8,6.79V427.2q0,5.32,3.94,5.33h12.57q4.44,0,7.75-4.57a12.2,12.2,0,0,0,2.54-7.11V407.51Z" transform="translate(-561.5 0.5)"/><path class="cls-2" d="M1490.74,422.24q-5.21,0-5.21,6.1c0,2.46,1.4,3.85,4.19,4.19l5.72.76.13,16.13h-53l-.13-16.89h2.79q7.37,0,11-8.64l28.32-65.65h39.88L1553,423.51q3.93,9,14.1,9v16.89h-62.49V433l5.72-.76q4.07-.51,4.06-4.2,0-5.83-5.46-5.84Zm8.13-30.48L1493,407.89h11.68Z" transform="translate(-561.5 0.5)"/></g></svg>