<svg xmlns="http://www.w3.org/2000/svg" viewBox="0 0 501 501">
    <g id="Logo">
        <path class="cls-1" d="M1031.83,353c-21.78-2.24-91-7.09-109-8.35,1.12-2.42,3.85-6.61,9.51-6.92,8-.43,2.66-.43,2.66-.43l100.54-3.91V277.21l-36.77-2.6,7.54-3.46v-13l-5.77-.44V216.22l-21.25-3-.89-8.22s-37.2-6.49-43.84-8.21-23-1.3-31.89-.86-31,2.58-31,2.58-13.19-44-38.25-69.37c4.33-7.21,5.81-23.91-29.13-28-2.89-2.74-12.3-11.19-19-11.19-8,0-62.44-37.2-71.74-42.82s-14.17-4.77-14.17-4.77L649.83,13.72c.36-3.78-.35-8.55-5.39-11.6-9.3-5.62-22.59.44-25.25,12.11,0,0-31.88,103.38-36.31,115.05s6.64,7.79,6.64,7.79l-7.08,111.15S578,250,578,252.13s3.54,3.45,3.54,3.45l-1.33,20.76s-2.66,1.73,3.55,1.73H586l-1.76,71.43-5.77,3.83s-12-1.72-15.5,4.77,3.55,13.4,8.86,13.4l5.31,21.19-4,.44-8.86,7.79s.45,10.37.45,15.13-10.19,70.51,15.94,75.26S628.49,499.53,636,500s10.63-3,18.6-4.76S710,471.42,710,471.42s1.33-3.46.44-9.53-6.2-4.32-6.2-4.32,1.77,4.32-2.66,4.32-39-60.11-39-60.11a12.36,12.36,0,0,0-8.86-3.47c-5.75,0-9.3-16.43-14.61-21.63l-5.32-5.18,17.94-211.77a57.16,57.16,0,0,0,25.91,6.32c35.09.76,52.31-8.51,56.54-13.71,17.26,4.59,31.58,8.37,35.58,9.38a41.23,41.23,0,0,1,9.86,4.31l17.93,51.21-2.54.57,17.58,52.07L802.56,272v29.84h-2.22l-2.65-7.35v-39.8l-3.1,13.85v25.95l-4,4.76s-1.77,1.73-.44,4.76l1.33,3-12.85,12.11v12.55h45.63s2.2,9.08,10.62,9.08v1.72c-25.54,1.32-102.42,5.39-114,7.07-13.88,2-23.62,20.19-23.32,33.45s19.48,29.12,53.14,29.12c26.47,0,37.23-1.25,40.63-1.77,7,5.91,18.12,10.28,35.55,11.3,54.92,3.17,183.06-3.18,207.57-10.11s28-15.27,27.45-30S1056.93,355.64,1031.83,353Zm-440-8.63,1.64-66.34h5.31l.44,61.42ZM830.43,126.32c-7.45-6.84-15.85-11.88-25.21-13.79v-8.65c3.11.49,8.08,1.88,16.38,5.51C836.75,116,832.78,123.45,830.43,126.32ZM698.93,62.68c5.75,3.46,70.85,39.79,70.85,39.79a98.75,98.75,0,0,0-13.77.34c-43.2-9.66-90.37-22.4-91.64-22.4-1.77,0-6.64-1.3-6.64,1.73,0,0-3.83-41.64-7.42-57.18L691.4,52.29S693.17,59.21,698.93,62.68Zm-21.71,99.48c-11.37,0-19.88-5.65-24.82-10L654.18,131l76.16,20.3C720.78,158.06,694.39,162.16,677.22,162.16Zm149.7,81.75v22.92l-3.49.74L805.36,215.5l-1.93.43L788,171.73c10.46,8.21,22,21.27,30.53,39.73l14.18,30.71ZM791.5,361.32l-23.63,3s-5-2.6-14.77-2.6-5.61-4.32,4.43-4,44.88-3.18,44.88-3.18l.29,4.34A16.35,16.35,0,0,0,791.5,361.32ZM1011.75,366a5.31,5.31,0,0,0-4.72,5.18H971.6s-3.26-6.63-8.56-6.63-7.39-4.9-4.73-5.2c0,0,46.94,1.74,54.62,3.17C1012.93,362.55,1014.4,365.73,1011.75,366Z" transform="translate(-561.5 0.5)"/>
    </g>
</svg>
